<?xml version="1.0" encoding="utf-8"?>
<!-- Generator: Adobe Illustrator 16.0.0, SVG Export Plug-In . SVG Version: 6.00 Build 0)  -->
<!DOCTYPE svg PUBLIC "-//W3C//DTD SVG 1.0//EN" "http://www.w3.org/TR/2001/REC-SVG-20010904/DTD/svg10.dtd">
<svg version="1.0" id="Layer_1" xmlns="http://www.w3.org/2000/svg" xmlns:xlink="http://www.w3.org/1999/xlink" x="0px" y="0px"
	 width="40px" height="40px" viewBox="0 0 40 40" style="enable-background:new 0 0 40 40;" xml:space="preserve">
<path style="fill:#FFFFFF;" d="M20,7.514c-6.896,0-12.486,5.59-12.486,12.486S13.104,32.486,20,32.486S32.486,26.896,32.486,20
	S26.896,7.514,20,7.514z M24.214,24.857c-0.279,0.505-0.652,0.924-1.118,1.256s-1.003,0.58-1.611,0.746s-1.239,0.25-1.89,0.25
	c-0.723,0-1.35-0.087-1.88-0.26c-0.53-0.172-0.97-0.392-1.318-0.658c-0.349-0.268-0.606-0.562-0.776-0.885s-0.254-0.629-0.254-0.922
	c0-0.3,0.078-0.556,0.234-0.768c0.156-0.211,0.385-0.323,0.684-0.336c0.182-0.007,0.334,0.02,0.454,0.078s0.216,0.133,0.288,0.225
	c0.072,0.091,0.122,0.191,0.151,0.303c0.029,0.11,0.044,0.211,0.044,0.303c0,0.137-0.021,0.271-0.063,0.404
	c-0.042,0.134-0.093,0.266-0.151,0.396c0.064,0.228,0.178,0.421,0.337,0.58c0.159,0.16,0.351,0.29,0.571,0.391
	c0.221,0.102,0.463,0.176,0.723,0.225s0.527,0.074,0.801,0.074c0.475,0,0.906-0.065,1.294-0.195
	c0.388-0.131,0.718-0.324,0.991-0.582c0.273-0.257,0.483-0.574,0.63-0.951c0.146-0.378,0.22-0.814,0.22-1.309
	c0-0.437-0.047-0.863-0.142-1.279c-0.095-0.417-0.273-0.785-0.537-1.104s-0.626-0.573-1.089-0.762s-1.059-0.277-1.787-0.264
	c-0.221,0-0.463,0.01-0.723,0.029v-0.898h0.82c0.527,0,0.967-0.096,1.318-0.288s0.635-0.431,0.85-0.717
	c0.215-0.286,0.367-0.593,0.459-0.921s0.137-0.629,0.137-0.902c0-0.409-0.037-0.79-0.112-1.141s-0.204-0.653-0.386-0.907
	c-0.182-0.253-0.425-0.453-0.728-0.6c-0.303-0.146-0.683-0.219-1.138-0.219c-0.299,0-0.581,0.044-0.845,0.131
	c-0.264,0.088-0.498,0.202-0.703,0.341c-0.205,0.14-0.376,0.295-0.513,0.467s-0.23,0.339-0.283,0.501
	c0.117,0.13,0.2,0.265,0.249,0.404c0.049,0.14,0.073,0.278,0.073,0.414c0,0.078-0.016,0.168-0.049,0.272s-0.084,0.2-0.156,0.287
	c-0.072,0.088-0.166,0.162-0.283,0.224c-0.117,0.062-0.26,0.089-0.43,0.083c-0.287-0.013-0.503-0.119-0.649-0.317
	s-0.22-0.438-0.22-0.718c0-0.273,0.083-0.578,0.249-0.913s0.419-0.649,0.757-0.942s0.764-0.537,1.274-0.732s1.112-0.293,1.802-0.293
	c0.533,0,1.043,0.063,1.528,0.19s0.913,0.329,1.284,0.605s0.668,0.635,0.889,1.074s0.332,0.975,0.332,1.606
	c0,0.319-0.055,0.636-0.166,0.952s-0.293,0.62-0.547,0.913s-0.591,0.565-1.011,0.815s-0.937,0.47-1.548,0.659v0.02
	c0.631,0.065,1.199,0.202,1.704,0.41s0.933,0.477,1.284,0.806s0.621,0.711,0.811,1.148c0.189,0.436,0.283,0.911,0.283,1.426
	C24.634,23.763,24.493,24.354,24.214,24.857z"/>
</svg>
