<?xml version="1.0" encoding="utf-8"?>
<!-- Generator: Adobe Illustrator 16.0.0, SVG Export Plug-In . SVG Version: 6.00 Build 0)  -->
<!DOCTYPE svg PUBLIC "-//W3C//DTD SVG 1.0//EN" "http://www.w3.org/TR/2001/REC-SVG-20010904/DTD/svg10.dtd">
<svg version="1.0" id="Layer_1" xmlns="http://www.w3.org/2000/svg" xmlns:xlink="http://www.w3.org/1999/xlink" x="0px" y="0px"
	 width="40px" height="40px" viewBox="0 0 40 40" style="enable-background:new 0 0 40 40;" xml:space="preserve">
<g>
	<path style="fill:#FFFFFF;" d="M21.855,19.013c0.329-0.254,0.585-0.581,0.767-0.981s0.273-0.89,0.273-1.47
		c0-1.002-0.288-1.759-0.864-2.271s-1.479-0.767-2.71-0.767c-0.377,0-0.66,0.057-0.85,0.171s-0.322,0.275-0.4,0.483
		s-0.119,0.459-0.122,0.752s-0.005,0.619-0.005,0.977v3.848c0.209,0.013,0.408,0.024,0.601,0.034s0.405,0.008,0.64-0.005
		c0.547-0.02,1.047-0.089,1.499-0.21S21.526,19.267,21.855,19.013z"/>
	<path style="fill:#FFFFFF;" d="M32.486,20c0-6.896-5.59-12.486-12.486-12.486S7.514,13.104,7.514,20S13.104,32.486,20,32.486
		S32.486,26.896,32.486,20z M26.284,26.787h-2.52c-0.195-0.17-0.371-0.339-0.527-0.508c-0.156-0.17-0.305-0.346-0.444-0.527
		c-0.14-0.183-0.274-0.37-0.405-0.562c-0.131-0.191-0.268-0.398-0.41-0.619l-1.338-2.139c-0.092-0.143-0.186-0.298-0.283-0.464
		s-0.201-0.333-0.312-0.503s-0.229-0.333-0.352-0.493s-0.254-0.304-0.391-0.435c-0.221,0.013-0.445,0.018-0.674,0.015
		s-0.455-0.015-0.684-0.034v3.893c0,0.365-0.005,0.679-0.015,0.939c-0.01,0.262-0.028,0.477-0.054,0.646l1.445-0.078v0.869h-4.502
		v-0.654c0.377-0.014,0.66-0.082,0.85-0.205c0.189-0.125,0.322-0.294,0.4-0.509s0.119-0.471,0.122-0.767
		c0.003-0.297,0.005-0.621,0.005-0.973v-8.65c0-0.273,0.005-0.532,0.015-0.777c0.01-0.244,0.028-0.467,0.054-0.669l-1.445,0.088
		v-0.889c0.756-0.013,1.514-0.023,2.275-0.029s1.529-0.003,2.305,0.01c0.963,0.02,1.789,0.112,2.476,0.278s1.25,0.402,1.689,0.708
		s0.762,0.677,0.967,1.113s0.308,0.931,0.308,1.484c0,0.391-0.053,0.79-0.156,1.196s-0.297,0.792-0.576,1.157
		s-0.662,0.69-1.147,0.977s-1.108,0.508-1.87,0.664c0.26,0.189,0.494,0.431,0.703,0.724c0.209,0.294,0.436,0.636,0.684,1.027
		l1.367,2.142c0.17,0.268,0.332,0.518,0.488,0.748c0.156,0.232,0.327,0.433,0.513,0.602c0.186,0.17,0.394,0.304,0.625,0.402
		c0.231,0.098,0.503,0.146,0.815,0.146V26.787z"/>
</g>
</svg>
