<?xml version="1.0" encoding="utf-8"?>
<!-- Generator: Adobe Illustrator 16.0.0, SVG Export Plug-In . SVG Version: 6.00 Build 0)  -->
<!DOCTYPE svg PUBLIC "-//W3C//DTD SVG 1.0//EN" "http://www.w3.org/TR/2001/REC-SVG-20010904/DTD/svg10.dtd">
<svg version="1.0" id="Layer_1" xmlns="http://www.w3.org/2000/svg" xmlns:xlink="http://www.w3.org/1999/xlink" x="0px" y="0px"
	 width="40px" height="40px" viewBox="0 0 40 40" style="enable-background:new 0 0 40 40;" xml:space="preserve">
<g>
	<path style="fill:#FFFFFF;" d="M20,7.514c-6.896,0-12.486,5.59-12.486,12.486S13.104,32.486,20,32.486S32.486,26.896,32.486,20
		S26.896,7.514,20,7.514z M24.246,22.93h-2.021v1.68c0,0.273-0.004,0.527-0.01,0.762s-0.029,0.452-0.068,0.654l1.543-0.059v0.82
		H18.65v-0.664h0.156c0.338-0.026,0.611-0.104,0.82-0.23s0.371-0.299,0.488-0.518c0.117-0.218,0.195-0.477,0.234-0.775
		c0.039-0.3,0.059-0.632,0.059-0.996V22.93h-6.084v-0.986l7.227-9.483h0.674v9.268l2.021,0.02V22.93z"/>
	<polygon style="fill:#FFFFFF;" points="15.643,21.631 20.408,21.689 20.408,15.312 20.369,15.312 	"/>
</g>
</svg>
