<?xml version="1.0" encoding="utf-8"?>
<!-- Generator: Adobe Illustrator 16.0.0, SVG Export Plug-In . SVG Version: 6.00 Build 0)  -->
<!DOCTYPE svg PUBLIC "-//W3C//DTD SVG 1.0//EN" "http://www.w3.org/TR/2001/REC-SVG-20010904/DTD/svg10.dtd">
<svg version="1.0" id="Layer_1" xmlns="http://www.w3.org/2000/svg" xmlns:xlink="http://www.w3.org/1999/xlink" x="0px" y="0px"
	 width="40px" height="40px" viewBox="0 0 40 40" style="enable-background:new 0 0 40 40;" xml:space="preserve">
<path style="fill:#FFFFFF;" d="M20,7.514c-6.896,0-12.486,5.59-12.486,12.486S13.104,32.486,20,32.486S32.486,26.896,32.486,20
	S26.896,7.514,20,7.514z M22.944,26.787h-5.098v-0.654c0.345-0.014,0.63-0.075,0.854-0.186c0.225-0.111,0.402-0.265,0.532-0.46
	s0.221-0.431,0.273-0.704s0.078-0.583,0.078-0.928l-0.02-9.452h-0.039l-2.402,1.553l-0.4-0.586l3.906-2.91h0.674l0.02,12.157
	c0,0.262-0.001,0.509-0.005,0.743c-0.004,0.235-0.021,0.446-0.054,0.636l1.68-0.078V26.787z"/>
</svg>
