<?xml version="1.0" encoding="utf-8"?>
<!-- Generator: Adobe Illustrator 16.0.0, SVG Export Plug-In . SVG Version: 6.00 Build 0)  -->
<!DOCTYPE svg PUBLIC "-//W3C//DTD SVG 1.0//EN" "http://www.w3.org/TR/2001/REC-SVG-20010904/DTD/svg10.dtd">
<svg version="1.0" id="Layer_1" xmlns="http://www.w3.org/2000/svg" xmlns:xlink="http://www.w3.org/1999/xlink" x="0px" y="0px"
	 width="40px" height="40px" viewBox="0 0 40 40" style="enable-background:new 0 0 40 40;" xml:space="preserve">
<g>
	<path style="fill:#FFFFFF;" d="M21.114,19.407c0.198-0.152,0.352-0.349,0.461-0.589c0.108-0.241,0.164-0.535,0.164-0.883
		c0-0.602-0.173-1.057-0.52-1.364c-0.346-0.307-0.889-0.46-1.627-0.46c-0.227,0-0.396,0.034-0.511,0.103s-0.193,0.165-0.24,0.291
		c-0.047,0.125-0.072,0.275-0.073,0.452c-0.002,0.176-0.003,0.372-0.003,0.586v2.311c0.125,0.008,0.245,0.015,0.36,0.021
		s0.243,0.005,0.384-0.003c0.329-0.012,0.629-0.054,0.9-0.126C20.683,19.672,20.917,19.56,21.114,19.407z"/>
	<path style="fill:#FFFFFF;" d="M27.5,20c0-4.143-3.357-7.5-7.5-7.5s-7.5,3.357-7.5,7.5s3.357,7.5,7.5,7.5S27.5,24.143,27.5,20z
		 M23.774,24.077h-1.513c-0.118-0.103-0.224-0.204-0.317-0.306s-0.183-0.207-0.267-0.316s-0.165-0.223-0.243-0.338
		c-0.079-0.115-0.161-0.239-0.247-0.372l-0.804-1.285c-0.055-0.086-0.111-0.179-0.17-0.279s-0.12-0.2-0.188-0.302
		c-0.066-0.102-0.138-0.2-0.211-0.296c-0.074-0.096-0.152-0.183-0.234-0.261c-0.133,0.008-0.268,0.011-0.405,0.009
		c-0.137-0.002-0.273-0.009-0.41-0.021v2.338c0,0.219-0.003,0.408-0.009,0.564c-0.006,0.157-0.018,0.287-0.032,0.389l0.868-0.047
		v0.522h-2.704v-0.394c0.226-0.008,0.396-0.049,0.51-0.123c0.114-0.075,0.193-0.177,0.24-0.306s0.072-0.282,0.073-0.46
		c0.002-0.179,0.003-0.374,0.003-0.584v-5.196c0-0.164,0.003-0.32,0.009-0.467c0.006-0.146,0.018-0.281,0.032-0.402l-0.867,0.053
		v-0.534c0.453-0.008,0.909-0.014,1.366-0.018c0.458-0.004,0.919-0.002,1.385,0.006c0.578,0.012,1.074,0.067,1.486,0.167
		c0.413,0.1,0.751,0.241,1.015,0.425c0.265,0.184,0.458,0.407,0.581,0.668c0.123,0.262,0.185,0.56,0.185,0.892
		c0,0.235-0.031,0.475-0.094,0.719S22.635,19,22.467,19.22c-0.168,0.219-0.397,0.414-0.689,0.586s-0.666,0.305-1.123,0.399
		c0.156,0.114,0.297,0.259,0.422,0.435c0.126,0.177,0.262,0.382,0.411,0.617l0.821,1.287c0.102,0.161,0.199,0.311,0.293,0.45
		c0.094,0.14,0.196,0.26,0.308,0.361s0.236,0.182,0.376,0.241c0.139,0.059,0.302,0.088,0.489,0.088V24.077z"/>
</g>
</svg>
