<?xml version="1.0" encoding="utf-8"?>
<!-- Generator: Adobe Illustrator 16.0.0, SVG Export Plug-In . SVG Version: 6.00 Build 0)  -->
<!DOCTYPE svg PUBLIC "-//W3C//DTD SVG 1.0//EN" "http://www.w3.org/TR/2001/REC-SVG-20010904/DTD/svg10.dtd">
<svg version="1.0" id="Layer_1" xmlns="http://www.w3.org/2000/svg" xmlns:xlink="http://www.w3.org/1999/xlink" x="0px" y="0px"
	 width="40px" height="40px" viewBox="0 0 40 40" style="enable-background:new 0 0 40 40;" xml:space="preserve">
<path style="fill:#FFFFFF;" d="M20,7.514c-6.896,0-12.486,5.59-12.486,12.486S13.104,32.486,20,32.486S32.486,26.896,32.486,20
	S26.896,7.514,20,7.514z M24.709,26.787h-8.662c0-0.703,0.112-1.328,0.337-1.875s0.521-1.054,0.889-1.52
	c0.367-0.465,0.787-0.912,1.26-1.342s0.959-0.883,1.46-1.358c0.866-0.826,1.493-1.593,1.88-2.302
	c0.387-0.708,0.581-1.391,0.581-2.048c0-0.371-0.038-0.74-0.112-1.107c-0.074-0.368-0.207-0.699-0.396-0.995
	c-0.188-0.296-0.44-0.535-0.757-0.717c-0.316-0.182-0.715-0.273-1.196-0.273c-0.273,0-0.536,0.038-0.786,0.112
	c-0.25,0.075-0.479,0.175-0.684,0.302c-0.205,0.126-0.381,0.275-0.527,0.448c-0.146,0.172-0.256,0.355-0.327,0.55
	c0.13,0.143,0.224,0.291,0.278,0.443c0.055,0.152,0.083,0.303,0.083,0.453c0,0.084-0.017,0.182-0.049,0.292
	s-0.088,0.212-0.166,0.307s-0.179,0.174-0.303,0.239s-0.276,0.094-0.459,0.087c-0.3-0.013-0.527-0.125-0.684-0.337
	s-0.234-0.467-0.234-0.767c0-0.28,0.088-0.591,0.264-0.933s0.439-0.659,0.791-0.952s0.788-0.539,1.309-0.737
	s1.126-0.298,1.816-0.298c0.527,0,1.044,0.062,1.548,0.186s0.953,0.327,1.348,0.61s0.709,0.658,0.947,1.123s0.356,1.037,0.356,1.714
	c0,0.338-0.071,0.7-0.215,1.084s-0.371,0.797-0.684,1.24s-0.718,0.917-1.216,1.421s-1.102,1.05-1.812,1.636
	c-0.456,0.371-0.872,0.735-1.25,1.094c-0.378,0.357-0.706,0.697-0.986,1.02s-0.507,0.625-0.679,0.908s-0.281,0.543-0.327,0.777
	l3.545,0.098c0.488,0.013,0.937,0.021,1.343,0.023c0.406,0.004,0.758-0.033,1.055-0.111s0.527-0.217,0.693-0.416
	c0.166-0.198,0.249-0.492,0.249-0.883h0.605L24.709,26.787z"/>
</svg>
