<?xml version="1.0" encoding="utf-8"?>
<!-- Generator: Adobe Illustrator 16.0.0, SVG Export Plug-In . SVG Version: 6.00 Build 0)  -->
<!DOCTYPE svg PUBLIC "-//W3C//DTD SVG 1.0//EN" "http://www.w3.org/TR/2001/REC-SVG-20010904/DTD/svg10.dtd">
<svg version="1.0" id="Layer_1" xmlns="http://www.w3.org/2000/svg" xmlns:xlink="http://www.w3.org/1999/xlink" x="0px" y="0px"
	 width="40px" height="40px" viewBox="0 0 40 40" style="enable-background:new 0 0 40 40;" xml:space="preserve">
<path style="fill:#FFFFFF;" d="M20,7.514c-6.896,0-12.486,5.59-12.486,12.486S13.104,32.486,20,32.486S32.486,26.896,32.486,20
	S26.896,7.514,20,7.514z M24.327,25.545c-0.271,0.563-0.632,1.035-1.084,1.416s-0.976,0.668-1.567,0.859
	c-0.592,0.192-1.215,0.289-1.865,0.289c-0.639,0-1.207-0.087-1.709-0.26c-0.502-0.172-0.924-0.392-1.27-0.658
	c-0.346-0.268-0.609-0.562-0.791-0.885s-0.273-0.629-0.273-0.922c0-0.3,0.078-0.556,0.234-0.768
	c0.156-0.211,0.385-0.323,0.684-0.336c0.182-0.007,0.334,0.02,0.454,0.078c0.12,0.058,0.216,0.133,0.288,0.223
	c0.072,0.092,0.122,0.191,0.151,0.303c0.029,0.109,0.044,0.211,0.044,0.301c0,0.131-0.02,0.264-0.059,0.4
	c-0.039,0.136-0.092,0.259-0.156,0.369c0.039,0.246,0.146,0.459,0.322,0.638s0.385,0.323,0.625,0.433
	c0.24,0.111,0.498,0.19,0.771,0.239c0.273,0.048,0.527,0.066,0.762,0.054c0.488-0.02,0.906-0.127,1.255-0.322
	s0.635-0.449,0.859-0.761s0.39-0.667,0.493-1.063s0.156-0.806,0.156-1.229c0-0.247-0.012-0.517-0.034-0.809
	c-0.022-0.293-0.069-0.586-0.142-0.878s-0.178-0.574-0.317-0.844c-0.14-0.27-0.323-0.51-0.552-0.722
	c-0.229-0.211-0.51-0.378-0.845-0.502s-0.737-0.186-1.206-0.186c-0.17,0-0.371,0.016-0.605,0.049s-0.474,0.078-0.718,0.137
	s-0.483,0.132-0.718,0.22s-0.436,0.187-0.605,0.298l-0.557-0.518l-0.049-6.406H21.5c0.377,0,0.693-0.026,0.947-0.078
	s0.457-0.13,0.61-0.234s0.263-0.238,0.327-0.4s0.098-0.358,0.098-0.586h0.557l-0.117,2.646l-6.699,0.137l0.01,4.395
	c0.326-0.13,0.742-0.255,1.25-0.376s1.059-0.181,1.65-0.181c0.82,0,1.521,0.132,2.104,0.396s1.058,0.609,1.426,1.035
	s0.638,0.907,0.811,1.44s0.259,1.071,0.259,1.612C24.732,24.33,24.598,24.982,24.327,25.545z"/>
</svg>
