<?xml version="1.0" encoding="utf-8"?>
<!-- Generator: Adobe Illustrator 16.0.0, SVG Export Plug-In . SVG Version: 6.00 Build 0)  -->
<!DOCTYPE svg PUBLIC "-//W3C//DTD SVG 1.0//EN" "http://www.w3.org/TR/2001/REC-SVG-20010904/DTD/svg10.dtd">
<svg version="1.0" id="Layer_1" xmlns="http://www.w3.org/2000/svg" xmlns:xlink="http://www.w3.org/1999/xlink" x="0px" y="0px"
	 width="1200px" height="800px" viewBox="0 100 1200 800" style="enable-background:new 0 100 1200 800;" xml:space="preserve">
<path style="fill:#434343;" d="M1202.45,761.217c-0.791,6.233-1.362,12.139-1.775,17.274c0.465,1.546,0.992,2.92,1.512,4.075
	c-0.22,1.537-0.413,2.9-0.562,4.065c-0.254,1.893-0.413,3.255-0.491,3.92h-0.835V900H0V297.127
	c28.102-0.069,62.569,1.071,102.416,4.671c116.489,10.542,442.96,90.325,573.242,78.28
	c130.288-12.043,280.365-34.672,303.229-42.762s87.068-10.032,96.49-12.347c9.423-2.312,124.699-35.881,124.699-35.881l0.221,0.026
	v270.671"/>
<g>
	
		<line style="fill:none;stroke:#7B7B7B;stroke-width:0.879;stroke-miterlimit:10;" x1="320.423" y1="233.322" x2="302.561" y2="267.343"/>
	
		<line style="fill:none;stroke:#7B7B7B;stroke-width:0.879;stroke-miterlimit:10;" x1="326.218" y1="251.484" x2="309.248" y2="228.742"/>
	
		<line style="fill:none;stroke:#7B7B7B;stroke-width:0.879;stroke-miterlimit:10;" x1="342.583" y1="246.271" x2="355.665" y2="229.585"/>
	
		<line style="fill:none;stroke:#7B7B7B;stroke-width:0.879;stroke-miterlimit:10;" x1="342.627" y1="266.29" x2="361.939" y2="222.376"/>
	<path style="fill:#434343;" d="M363.751,195.817v24.87c0,0-0.115,2.579-2.232,5.628c-2.405,3.493-7.427,7.61-17.856,9.188
		c-0.933,0.144-1.934,0.259-2.954,0.356c-0.52,0.048-1.049,0.096-1.587,0.134c-1.588,0.116-3.271,0.183-5.071,0.183
		c-1.674,0-3.251-0.048-4.743-0.154c-14.21-0.933-20.242-6.022-22.792-10.082c-1.511-2.415-1.809-4.465-1.867-5.071v-0.028
		c-0.01-0.097-0.01-0.154-0.01-0.154v-24.87c0,0,0.712-15.49,29.7-15.49C363.318,180.328,363.751,195.817,363.751,195.817z"/>
	
		<line style="fill:none;stroke:#7B7B7B;stroke-width:0.879;stroke-miterlimit:10;" x1="325.897" y1="262.423" x2="305.339" y2="224.379"/>
	<g>
		<path style="fill:#7B7B7B;" d="M306.516,225.941l-8.688,141.081h-2.915l0.317-2.355l9.419-143.795
			C304.708,221.476,305.005,223.526,306.516,225.941z"/>
	</g>
	<g>
		<path style="fill:#7B7B7B;" d="M368.417,368.302l0.048-2.443l-6.946-139.542c2.117-3.05,2.232-5.628,2.232-5.628v-0.539
			l7.562,147.835L368.417,368.302z"/>
	</g>
	<path style="fill:#434343;" d="M339.122,235.994V365.56h-9.813V236.023c1.491,0.106,3.069,0.154,4.743,0.154
		C335.851,236.177,337.534,236.11,339.122,235.994z"/>
	<path style="fill:#434343;" d="M339.122,180.758L339.122,180.758c0,1.343-1.088,2.432-2.431,2.432h-4.952
		c-1.343,0-2.431-1.088-2.431-2.431l0,0c0-1.343,1.083-2.432,2.426-2.43c0.751,0.001,1.523,0.001,2.316,0.001
		c0.911,0,1.792,0,2.646-0.002C338.04,178.326,339.122,179.415,339.122,180.758z"/>
	<g>
		<path style="fill:#7B7B7B;" d="M342.056,367.205l0.144-2.434l-1.491-128.912c1.02-0.097,2.021-0.212,2.954-0.356l1.299,131.499
			L342.056,367.205z"/>
	</g>
	<path style="fill:none;" d="M304.746,211.557v7.264c-0.279,0.202-0.394,0.317-0.394,0.317l-2.646-0.452v-5.571
		C302.389,212.673,303.37,212.134,304.746,211.557z"/>
	<g>
		<path style="fill:#7B7B7B;" d="M367.58,212.692c-0.048-0.067-0.125-0.183-0.278-0.346c-0.154-0.164-0.385-0.385-0.723-0.635
			c-0.086-0.067-0.173-0.135-0.278-0.202c-1.039-0.722-2.867-1.665-6.013-2.541c-0.317-0.086-0.654-0.173-1-0.269
			c-2.069-0.52-4.647-1.011-7.851-1.415c-0.327-0.039-0.664-0.077-1-0.115c-2.453-0.279-5.253-0.51-8.438-0.664
			c-0.327-0.01-0.664-0.02-1-0.039c-1.693-0.068-3.502-0.116-5.426-0.135c-1.396-0.02-2.732-0.02-4.021,0.01
			c-0.337,0-0.673,0-1,0.009c-3.502,0.058-6.6,0.241-9.352,0.491c-0.336,0.039-0.673,0.067-1,0.106
			c-3.05,0.308-5.647,0.722-7.851,1.184c-0.347,0.077-0.683,0.154-1.01,0.222c-2.309,0.538-4.147,1.115-5.59,1.683
			c-0.356,0.134-0.692,0.279-1,0.414c-1.472,0.645-2.434,1.231-3.04,1.674c-0.625,0.461-0.866,0.75-0.866,0.75l-0.02,0.875
			l-0.077,4.772l-0.019,1.01l0.981,0.154l2.8,0.442c0,0,0.067-0.096,0.24-0.269v0.086c0.308-0.25,0.645-0.481,1-0.702
			c1.521-0.963,3.416-1.742,5.59-2.376c0.327-0.106,0.663-0.193,1.01-0.279c1.222-0.327,2.521-0.606,3.877-0.847
			c0.067-0.01,0.135-0.019,0.212-0.039c0.288-0.048,0.577-0.096,0.875-0.135c0.309-0.048,0.616-0.096,0.923-0.134
			c0.625-0.086,1.28-0.164,1.963-0.241c0.327-0.039,0.654-0.067,1-0.105c2.675-0.26,5.771-0.443,9.352-0.5
			c0.327-0.01,0.664-0.02,1-0.01c1.25-0.029,2.55-0.029,3.916-0.01c1.973,0.029,3.81,0.077,5.532,0.164
			c0.231,0.009,0.461,0.029,0.692,0.038c0.106,0.01,0.212,0.01,0.308,0.019c3.281,0.183,6.07,0.443,8.438,0.77
			c0.346,0.048,0.674,0.096,1,0.144c3.521,0.529,6.042,1.184,7.851,1.838c0.356,0.134,0.693,0.269,1,0.394
			c0.385,0.164,0.731,0.328,1.04,0.481c0.105,0.048,0.202,0.106,0.298,0.164c0.192,0.106,0.375,0.222,0.539,0.327
			c0.135,0.086,0.25,0.173,0.366,0.25c0.798,0.567,1.106,1.039,1.212,1.27c0.058,0.106,0.077,0.164,0.077,0.164l2.761-1.049
			l0.924-0.346l0.019-1.049l0.058-3.242l0.039-2.146C367.619,212.76,367.609,212.741,367.58,212.692z M304.746,218.821
			c-0.279,0.202-0.394,0.317-0.394,0.317l-2.646-0.452v-5.571c0.683-0.442,1.665-0.981,3.04-1.559V218.821z M311.336,216.002
			c-2.752,0.78-4.522,1.587-5.59,2.194v-7.033c1.473-0.539,3.31-1.097,5.59-1.587V216.002z M320.197,214.27
			c-3.175,0.405-5.763,0.924-7.852,1.462v-6.378c2.213-0.443,4.812-0.847,7.852-1.145V214.27z M330.549,213.51
			c-3.56,0.106-6.658,0.337-9.352,0.646v-6.032c2.752-0.25,5.859-0.414,9.352-0.462V213.51z M340.998,213.53
			c-2.723-0.106-5.763-0.135-9.169-0.058c-0.096,0-0.192,0-0.279,0.01v-5.83c1.135-0.02,2.318-0.02,3.55,0
			c2.097,0.029,4.069,0.077,5.897,0.163L340.998,213.53L340.998,213.53z M350.436,214.366c-2.386-0.356-5.167-0.634-8.438-0.779
			v-5.725c3.204,0.154,5.994,0.395,8.438,0.683V214.366z M359.287,216.599c-1.905-0.779-4.436-1.51-7.851-2.078v-5.85
			c3.223,0.414,5.801,0.934,7.851,1.472V216.599z M366.579,218.475l-2.607,0.894c-0.817-0.702-1.943-1.529-3.685-2.338v-6.609
			c3.781,1.116,5.522,2.29,6.292,3.002V218.475z"/>
	</g>
	<path style="fill:none;" d="M340.998,207.814v5.715c-2.723-0.106-5.763-0.135-9.169-0.058c-0.096,0-0.192,0-0.279,0.01v-5.83
		c1.135-0.02,2.318-0.02,3.55,0C337.197,207.68,339.169,207.729,340.998,207.814z"/>
	<path style="fill:none;" d="M350.436,208.546v5.82c-2.386-0.356-5.167-0.634-8.438-0.779v-5.725
		C345.202,208.017,347.992,208.257,350.436,208.546z"/>
	<path style="fill:#434343;" d="M304.746,219.86v0.086c-0.077,0.058-0.164,0.116-0.24,0.183
		C304.505,220.129,304.572,220.034,304.746,219.86z"/>
	<path style="fill:#434343;" d="M363.741,220.428c-0.134-0.24-0.461-0.702-1.212-1.27
		C363.328,219.726,363.636,220.197,363.741,220.428z"/>
	<g>
		<g>
			<path style="fill:#7B7B7B;" d="M327.212,195.353c0.202-0.006,0.373,0.022,0.51,0.088c0.138,0.065,0.249,0.152,0.333,0.262
				c0.084,0.11,0.144,0.236,0.181,0.379c0.036,0.143,0.054,0.289,0.053,0.438c-0.001,0.206-0.032,0.387-0.094,0.542
				c-0.062,0.156-0.146,0.284-0.255,0.385c-0.109,0.102-0.241,0.179-0.396,0.233c-0.155,0.054-0.326,0.084-0.514,0.091
				c-0.142,0.005-0.284,0.01-0.425,0.016c-0.002,0.535-0.005,1.069-0.008,1.604c-0.265,0.01-0.53,0.021-0.795,0.032
				c0.006-1.341,0.013-2.682,0.02-4.023C326.285,195.384,326.749,195.368,327.212,195.353z M326.961,197.178
				c0.158-0.005,0.286-0.058,0.384-0.159c0.099-0.101,0.147-0.254,0.148-0.46c0.001-0.202-0.04-0.354-0.125-0.457
				c-0.084-0.102-0.226-0.15-0.424-0.143c-0.11,0.004-0.221,0.008-0.332,0.012c-0.002,0.407-0.003,0.814-0.005,1.221
				C326.725,197.187,326.843,197.182,326.961,197.178z"/>
			<path style="fill:#7B7B7B;" d="M330.437,195.263c0.341,1.325,0.683,2.65,1.025,3.973c-0.276,0.007-0.553,0.014-0.829,0.022
				c-0.06-0.28-0.119-0.561-0.178-0.841c-0.35,0.009-0.7,0.019-1.049,0.03c-0.062,0.284-0.124,0.568-0.188,0.853
				c-0.276,0.009-0.552,0.018-0.828,0.027c0.354-1.349,0.708-2.695,1.062-4.04C329.782,195.279,330.109,195.271,330.437,195.263z
				 M330.32,197.759c-0.125-0.596-0.249-1.192-0.373-1.789c-0.003,0-0.007,0-0.011,0c-0.13,0.604-0.259,1.207-0.389,1.811
				C329.805,197.773,330.062,197.766,330.32,197.759z"/>
			<path style="fill:#7B7B7B;" d="M333.227,195.21c0.332-0.005,0.588,0.077,0.772,0.243c0.183,0.167,0.273,0.423,0.272,0.769
				c-0.001,0.268-0.056,0.487-0.164,0.657c-0.108,0.171-0.274,0.283-0.499,0.334c0,0.004,0,0.008-0.001,0.012
				c0.2,0.026,0.345,0.089,0.437,0.188c0.091,0.099,0.147,0.259,0.169,0.483c0.007,0.074,0.012,0.155,0.016,0.242
				c0.002,0.087,0.006,0.185,0.009,0.292c0.006,0.212,0.016,0.374,0.031,0.484c0.021,0.111,0.069,0.187,0.143,0.227
				c0,0.011,0,0.022,0,0.034c-0.288,0.004-0.575,0.01-0.862,0.015c-0.041-0.055-0.065-0.119-0.076-0.191
				c-0.011-0.072-0.018-0.147-0.021-0.226c-0.006-0.254-0.012-0.509-0.018-0.764c-0.007-0.156-0.045-0.279-0.115-0.367
				c-0.07-0.088-0.188-0.131-0.354-0.128c-0.142,0.002-0.283,0.005-0.425,0.008c-0.003,0.562-0.006,1.125-0.009,1.688
				c-0.265,0.006-0.53,0.012-0.795,0.018c0.006-1.331,0.013-2.663,0.019-3.994C332.247,195.226,332.736,195.217,333.227,195.21z
				 M332.876,196.958c0.191-0.003,0.338-0.051,0.442-0.145c0.103-0.093,0.156-0.248,0.156-0.463c0.002-0.368-0.182-0.55-0.55-0.544
				c-0.125,0.002-0.25,0.004-0.375,0.006c-0.001,0.384-0.003,0.768-0.005,1.151C332.655,196.962,332.765,196.96,332.876,196.958z"/>
			<path style="fill:#7B7B7B;" d="M335.617,196.774c0.003,0,0.007,0,0.011,0c0.337-0.534,0.675-1.067,1.013-1.599
				c0.288-0.001,0.575-0.002,0.862-0.003c-0.36,0.567-0.72,1.136-1.08,1.706c0.394,0.753,0.788,1.506,1.182,2.259
				c-0.298,0.002-0.597,0.004-0.896,0.007c-0.268-0.541-0.536-1.081-0.804-1.622c-0.098,0.151-0.196,0.303-0.294,0.454
				c-0.002,0.394-0.004,0.787-0.006,1.18c-0.265,0.003-0.53,0.007-0.795,0.011c0.006-1.326,0.013-2.653,0.019-3.979
				c0.265-0.002,0.53-0.005,0.795-0.007C335.622,195.713,335.619,196.244,335.617,196.774z"/>
			<path style="fill:#7B7B7B;" d="M339.997,195.829c-0.47-0.002-0.939-0.003-1.409-0.003c-0.001,0.311-0.003,0.621-0.004,0.932
				c0.442,0,0.884,0,1.326,0.001c-0.001,0.218-0.002,0.436-0.003,0.653c-0.442,0-0.884,0-1.326,0
				c-0.001,0.355-0.003,0.71-0.005,1.065c0.488-0.001,0.976-0.002,1.464-0.001c-0.001,0.218-0.002,0.436-0.003,0.653
				c-0.753,0-1.507,0.002-2.26,0.007c0.006-1.321,0.013-2.643,0.019-3.964c0.735-0.001,1.47,0,2.205,0.003
				C339.999,195.393,339.998,195.611,339.997,195.829z"/>
			<path style="fill:#7B7B7B;" d="M341.923,195.19c0.332,0.003,0.589,0.09,0.772,0.26c0.184,0.169,0.275,0.425,0.273,0.767
				c-0.001,0.265-0.057,0.48-0.164,0.646c-0.107,0.167-0.274,0.272-0.499,0.318c0,0.004,0,0.008,0,0.011
				c0.2,0.031,0.344,0.097,0.436,0.197c0.092,0.1,0.148,0.261,0.169,0.482c0.006,0.074,0.012,0.154,0.015,0.24
				c0.003,0.086,0.006,0.183,0.01,0.29c0.006,0.209,0.016,0.37,0.031,0.48c0.021,0.111,0.069,0.187,0.143,0.228
				c0,0.011,0,0.022,0,0.033c-0.288-0.002-0.575-0.005-0.862-0.007c-0.04-0.055-0.065-0.119-0.076-0.19
				c-0.011-0.072-0.018-0.147-0.021-0.225c-0.006-0.252-0.012-0.504-0.018-0.756c-0.007-0.155-0.045-0.276-0.115-0.366
				c-0.069-0.089-0.187-0.134-0.353-0.135c-0.142-0.001-0.284-0.002-0.425-0.003c-0.003,0.557-0.006,1.113-0.008,1.67
				c-0.265,0-0.531-0.001-0.796-0.001c0.006-1.317,0.013-2.634,0.019-3.951C340.943,195.181,341.433,195.185,341.923,195.19z
				 M341.572,196.911c0.191,0.001,0.339-0.042,0.443-0.132c0.103-0.089,0.155-0.24,0.156-0.454c0.002-0.364-0.182-0.549-0.55-0.552
				c-0.125-0.001-0.25-0.002-0.375-0.003c-0.002,0.38-0.004,0.759-0.005,1.139C341.351,196.909,341.461,196.91,341.572,196.911z"/>
			<path style="fill:#7B7B7B;" d="M344.152,198.041c0,0.091,0.007,0.175,0.021,0.25c0.014,0.075,0.042,0.139,0.082,0.191
				c0.041,0.051,0.094,0.093,0.163,0.124c0.068,0.03,0.153,0.045,0.257,0.047c0.121,0.002,0.231-0.036,0.33-0.113
				c0.098-0.077,0.147-0.198,0.148-0.363c0-0.088-0.011-0.165-0.035-0.229c-0.023-0.065-0.063-0.123-0.118-0.175
				s-0.128-0.1-0.217-0.144c-0.09-0.043-0.202-0.088-0.334-0.134c-0.177-0.062-0.329-0.127-0.458-0.2
				c-0.129-0.071-0.236-0.155-0.322-0.25c-0.086-0.095-0.149-0.204-0.189-0.328c-0.04-0.123-0.059-0.265-0.059-0.427
				c0.002-0.389,0.112-0.678,0.331-0.866c0.218-0.188,0.517-0.278,0.896-0.271c0.176,0.003,0.34,0.025,0.489,0.067
				c0.149,0.041,0.277,0.106,0.385,0.194c0.109,0.089,0.193,0.201,0.253,0.335c0.061,0.135,0.09,0.296,0.089,0.483
				c0,0.036,0,0.073,0,0.109c-0.254-0.005-0.508-0.011-0.763-0.015c0.001-0.187-0.032-0.331-0.097-0.433
				c-0.066-0.102-0.176-0.154-0.332-0.157c-0.088-0.002-0.162,0.01-0.221,0.035c-0.059,0.024-0.106,0.058-0.141,0.1
				c-0.036,0.041-0.06,0.089-0.073,0.144c-0.013,0.055-0.02,0.112-0.02,0.171c-0.001,0.121,0.024,0.223,0.076,0.306
				c0.051,0.083,0.161,0.161,0.33,0.234c0.204,0.091,0.408,0.183,0.612,0.275c0.15,0.068,0.273,0.139,0.369,0.212
				c0.095,0.073,0.171,0.152,0.228,0.236c0.057,0.083,0.096,0.174,0.118,0.274c0.021,0.1,0.033,0.209,0.032,0.331
				c-0.002,0.414-0.125,0.713-0.366,0.897c-0.242,0.185-0.579,0.274-1.01,0.269c-0.449-0.006-0.77-0.106-0.962-0.303
				c-0.192-0.197-0.288-0.478-0.286-0.841c0-0.054,0-0.107,0.001-0.16c0.265,0.003,0.53,0.006,0.795,0.01
				C344.153,197.963,344.153,198.002,344.152,198.041z"/>
			<path style="fill:#7B7B7B;" d="M347.724,195.299c0.162,0.004,0.312,0.025,0.45,0.062c0.138,0.037,0.256,0.095,0.355,0.175
				c0.099,0.08,0.176,0.185,0.229,0.313c0.055,0.13,0.082,0.287,0.081,0.474c-0.001,0.211-0.052,0.391-0.152,0.541
				c-0.1,0.147-0.25,0.248-0.449,0.297c0,0.003,0,0.007,0,0.011c0.22,0.035,0.396,0.133,0.523,0.293
				c0.128,0.161,0.191,0.373,0.19,0.636c-0.001,0.153-0.022,0.298-0.063,0.437c-0.041,0.137-0.11,0.257-0.208,0.359
				s-0.226,0.181-0.383,0.24c-0.156,0.058-0.351,0.084-0.583,0.079c-0.448-0.01-0.895-0.019-1.343-0.027
				c0.006-1.307,0.013-2.614,0.019-3.921C346.836,195.275,347.28,195.287,347.724,195.299z M347.481,198.627
				c0.191,0.004,0.347-0.035,0.465-0.116c0.118-0.082,0.178-0.235,0.179-0.461c0-0.113-0.015-0.208-0.045-0.283
				c-0.031-0.076-0.073-0.137-0.126-0.185c-0.053-0.046-0.117-0.081-0.19-0.101c-0.074-0.02-0.155-0.031-0.243-0.034
				c-0.114-0.002-0.229-0.005-0.342-0.008c-0.002,0.394-0.004,0.787-0.006,1.18C347.275,198.623,347.378,198.625,347.481,198.627z
				 M347.407,196.897c0.221,0.005,0.382-0.03,0.484-0.105c0.102-0.076,0.153-0.208,0.154-0.394S348,196.079,347.909,196
				c-0.092-0.079-0.237-0.122-0.436-0.126c-0.096-0.002-0.191-0.005-0.287-0.007c-0.002,0.342-0.003,0.684-0.005,1.026
				C347.256,196.894,347.332,196.896,347.407,196.897z"/>
			<path style="fill:#7B7B7B;" d="M350.197,198.097c0,0.099,0.006,0.189,0.018,0.271c0.013,0.083,0.036,0.154,0.071,0.215
				s0.082,0.11,0.144,0.146c0.061,0.036,0.137,0.056,0.229,0.059c0.096,0.003,0.174-0.012,0.232-0.044
				c0.059-0.033,0.106-0.079,0.142-0.137c0.036-0.059,0.06-0.13,0.072-0.211c0.013-0.081,0.021-0.171,0.021-0.27
				c0.004-0.906,0.009-1.812,0.013-2.719c0.266,0.01,0.531,0.02,0.795,0.031c-0.004,0.905-0.009,1.811-0.013,2.716
				c0,0.247-0.037,0.451-0.107,0.61c-0.071,0.16-0.166,0.285-0.284,0.375c-0.118,0.09-0.253,0.15-0.404,0.178
				c-0.15,0.027-0.308,0.038-0.47,0.034c-0.162-0.005-0.318-0.024-0.469-0.058c-0.151-0.033-0.286-0.097-0.403-0.19
				c-0.118-0.092-0.211-0.222-0.28-0.388c-0.069-0.166-0.103-0.38-0.102-0.643c0.004-0.908,0.009-1.816,0.013-2.725
				c0.265,0.008,0.53,0.017,0.796,0.026C350.206,196.282,350.202,197.189,350.197,198.097z"/>
			<path style="fill:#7B7B7B;" d="M353.906,195.522c0.332,0.015,0.589,0.109,0.771,0.283c0.183,0.173,0.274,0.429,0.272,0.765
				c-0.001,0.261-0.056,0.471-0.164,0.631c-0.107,0.161-0.274,0.259-0.499,0.296c0,0.003,0,0.007,0,0.011
				c0.199,0.038,0.344,0.108,0.436,0.21c0.091,0.102,0.147,0.261,0.169,0.48c0.007,0.073,0.012,0.152,0.016,0.237
				c0.002,0.085,0.006,0.181,0.009,0.286c0.006,0.207,0.017,0.365,0.031,0.474c0.021,0.11,0.069,0.186,0.143,0.229
				c0,0.011,0,0.021-0.001,0.033c-0.287-0.013-0.574-0.025-0.861-0.037c-0.04-0.056-0.065-0.12-0.076-0.191
				c-0.011-0.071-0.019-0.145-0.021-0.221c-0.006-0.249-0.012-0.497-0.018-0.746c-0.007-0.153-0.045-0.274-0.115-0.364
				c-0.069-0.09-0.187-0.139-0.353-0.146c-0.142-0.006-0.283-0.012-0.425-0.017c-0.002,0.548-0.005,1.096-0.008,1.645
				c-0.265-0.01-0.53-0.02-0.795-0.029c0.006-1.297,0.013-2.595,0.019-3.892C352.926,195.479,353.416,195.5,353.906,195.522z
				 M353.555,197.205c0.192,0.008,0.339-0.03,0.443-0.114c0.103-0.084,0.155-0.232,0.156-0.442c0.002-0.359-0.182-0.547-0.55-0.563
				c-0.125-0.005-0.25-0.011-0.375-0.016c-0.001,0.374-0.003,0.748-0.005,1.122C353.334,197.196,353.445,197.2,353.555,197.205z"/>
			<path style="fill:#7B7B7B;" d="M357.229,196.615c-0.016-0.077-0.043-0.147-0.079-0.213c-0.036-0.066-0.083-0.12-0.14-0.165
				c-0.057-0.044-0.126-0.069-0.208-0.073c-0.191-0.01-0.33,0.088-0.415,0.292c-0.086,0.205-0.13,0.55-0.132,1.035
				c-0.001,0.232,0.005,0.442,0.019,0.631c0.013,0.188,0.04,0.35,0.078,0.484c0.038,0.133,0.092,0.237,0.164,0.312
				c0.072,0.075,0.164,0.114,0.278,0.119c0.048,0.003,0.101-0.007,0.158-0.03c0.057-0.023,0.11-0.058,0.161-0.106
				c0.05-0.048,0.092-0.11,0.125-0.186c0.034-0.076,0.051-0.166,0.051-0.271c0-0.132,0.001-0.264,0.002-0.395
				c-0.175-0.009-0.35-0.018-0.525-0.027c0.001-0.192,0.002-0.383,0.002-0.575c0.429,0.021,0.858,0.044,1.287,0.068
				c-0.003,0.694-0.007,1.389-0.01,2.083c-0.195-0.01-0.39-0.02-0.585-0.03c0-0.119,0.001-0.238,0.002-0.357
				c-0.004,0-0.008,0-0.011,0c-0.097,0.147-0.212,0.249-0.347,0.305c-0.135,0.057-0.296,0.08-0.484,0.071
				c-0.243-0.011-0.44-0.062-0.593-0.152c-0.153-0.09-0.272-0.224-0.357-0.402c-0.085-0.178-0.143-0.395-0.171-0.652
				c-0.028-0.256-0.042-0.553-0.04-0.889c0.001-0.326,0.024-0.611,0.068-0.855c0.043-0.244,0.117-0.446,0.221-0.605
				c0.104-0.16,0.241-0.276,0.411-0.351c0.169-0.075,0.381-0.105,0.635-0.091c0.435,0.023,0.747,0.146,0.937,0.369
				c0.19,0.222,0.285,0.529,0.283,0.922c-0.254-0.014-0.508-0.028-0.762-0.042C357.252,196.767,357.245,196.691,357.229,196.615z"/>
			<path style="fill:#7B7B7B;" d="M339.172,200.253c0.141,0.976,0.282,1.95,0.423,2.925c0.003,0,0.007,0,0.011,0
				c0.159-0.976,0.318-1.952,0.478-2.926c0.254,0,0.509,0,0.763,0c0.15,0.974,0.3,1.947,0.451,2.919c0.003,0,0.007,0,0.011,0
				c0.15-0.973,0.3-1.946,0.45-2.917c0.254,0.001,0.509,0.002,0.763,0.003c-0.246,1.312-0.491,2.626-0.737,3.941
				c-0.297,0-0.593,0.001-0.89,0.002c-0.143-0.955-0.285-1.909-0.428-2.865c-0.003,0-0.007,0-0.011,0
				c-0.152,0.956-0.304,1.913-0.456,2.87c-0.297,0.002-0.593,0.004-0.89,0.007c-0.233-1.317-0.466-2.636-0.699-3.955
				C338.664,200.255,338.917,200.254,339.172,200.253z"/>
			<path style="fill:#7B7B7B;" d="M343.976,203.178c0.006,0,0.011,0,0.017,0c0.2-0.969,0.399-1.937,0.599-2.903
				c0.275,0.003,0.549,0.007,0.824,0.011c-0.309,1.305-0.617,2.611-0.925,3.92c-0.34-0.002-0.681-0.004-1.022-0.005
				c-0.296-1.313-0.592-2.628-0.888-3.943c0.284,0.001,0.567,0.003,0.851,0.006C343.613,201.235,343.794,202.207,343.976,203.178z"
				/>
		</g>
	</g>
	<g>
		<polygon style="fill:#7B7B7B;" points="323.121,363.103 326.081,214.378 328.117,214.378 325.822,365.417 322.907,365.538 		"/>
	</g>
	<g>
		<rect x="299.871" y="317.051" style="fill:#7B7B7B;" width="26.213" height="2.452"/>
	</g>
	<g>
		<rect x="325.141" y="317.088" style="fill:#7B7B7B;" width="43.361" height="2.415"/>
	</g>
	<g>
		<rect x="325.141" y="269.122" style="fill:#7B7B7B;" width="40.091" height="2.414"/>
	</g>
	<g>
		<rect x="326.973" y="236.025" style="fill:#7B7B7B;" width="36.428" height="2.414"/>
	</g>
	<g>
		<rect x="304.093" y="235.772" style="fill:#7B7B7B;" width="22.639" height="2.414"/>
	</g>
	<g>
		<rect x="342.148" y="266.386" style="fill:#7B7B7B;" width="22.638" height="1.054"/>
	</g>
	<g>
		<rect x="343.727" y="315.317" style="fill:#7B7B7B;" width="22.638" height="1.053"/>
	</g>
	<g>
		<rect x="300.234" y="315.216" style="fill:#7B7B7B;" width="42.393" height="1.054"/>
	</g>
	<g>
		<rect x="302.561" y="266.29" style="fill:#7B7B7B;" width="40.066" height="1.053"/>
	</g>
	<g>
		
			<rect x="302.008" y="268.916" transform="matrix(-0.9994 -0.0338 0.0338 -0.9994 618.9661 550.7072)" style="fill:#7B7B7B;" width="24.258" height="2.413"/>
	</g>
	<path style="fill:#434343;" d="M334.126,158.113L334.126,158.113c-0.378,0-0.685,0.306-0.685,0.684V184.7
		c0,0.378,0.307,0.684,0.685,0.684l0,0c0.378,0,0.684-0.306,0.684-0.684v-25.903C334.81,158.419,334.504,158.113,334.126,158.113z"
		/>
	
		<polyline style="fill:none;stroke:#7B7B7B;stroke-width:0.879;stroke-linecap:round;stroke-linejoin:round;stroke-miterlimit:10;" points="
		299.479,318.496 324.26,364.812 368.501,319.502 343.422,362.274 342.75,319.663 370.082,365.877 342.316,337.044 	"/>
	<polyline style="fill:none;stroke:#7B7B7B;stroke-width:0.879;stroke-miterlimit:10;" points="331.503,334.774 296.247,366.192 
		325.141,319.502 	"/>
	<polyline style="fill:none;stroke:#7B7B7B;stroke-width:0.879;stroke-miterlimit:10;" points="325.763,289.789 300.234,315.216 
		322.426,270.566 	"/>
	<polyline style="fill:none;stroke:#7B7B7B;stroke-width:0.879;stroke-miterlimit:10;" points="325.229,313.149 302.67,270.032 
		325.497,298.332 	"/>
	<polyline style="fill:none;stroke:#7B7B7B;stroke-width:0.879;stroke-miterlimit:10;" points="342.85,275.238 367.946,315.151 
		342.983,286.184 343.25,292.191 364.208,269.498 343.651,314.083 	"/>
	
		<line style="fill:none;stroke:#7B7B7B;stroke-width:0.879;stroke-miterlimit:10;" x1="364.341" y1="265.36" x2="342.583" y2="239.597"/>
	
		<line style="fill:none;stroke:#7B7B7B;stroke-width:0.879;stroke-miterlimit:10;" x1="302.072" y1="268.507" x2="326.164" y2="244.536"/>
</g>
</svg>
