<?xml version="1.0" encoding="utf-8"?>
<!-- Generator: Adobe Illustrator 16.0.0, SVG Export Plug-In . SVG Version: 6.00 Build 0)  -->
<!DOCTYPE svg PUBLIC "-//W3C//DTD SVG 1.0//EN" "http://www.w3.org/TR/2001/REC-SVG-20010904/DTD/svg10.dtd">
<svg version="1.0" id="Layer_1" xmlns="http://www.w3.org/2000/svg" xmlns:xlink="http://www.w3.org/1999/xlink" x="0px" y="0px"
	 width="1200px" height="800px" viewBox="0 100 1200 800" style="enable-background:new 0 100 1200 800;" xml:space="preserve">
<path style="fill:#969696;" d="M1202.45,761.217c-0.791,6.233-1.362,12.139-1.775,17.274c0.465,1.546,0.992,2.92,1.512,4.075
	c-0.22,1.537-0.413,2.9-0.562,4.065c-0.254,1.893-0.413,3.255-0.491,3.92h-0.835V900H0V297.127
	c28.102-0.069,62.569,1.071,102.416,4.671c116.489,10.542,442.96,90.325,573.242,78.28
	c130.288-12.043,280.365-34.672,303.229-42.762s87.068-10.032,96.49-12.347c9.423-2.312,124.699-35.881,124.699-35.881l0.221,0.026
	v270.671"/>
</svg>
