<?xml version="1.0" encoding="utf-8"?>
<!-- Generator: Adobe Illustrator 16.0.0, SVG Export Plug-In . SVG Version: 6.00 Build 0)  -->
<!DOCTYPE svg PUBLIC "-//W3C//DTD SVG 1.0//EN" "http://www.w3.org/TR/2001/REC-SVG-20010904/DTD/svg10.dtd">
<svg version="1.0" id="Layer_1" xmlns="http://www.w3.org/2000/svg" xmlns:xlink="http://www.w3.org/1999/xlink" x="0px" y="0px"
	 width="450px" height="800px" viewBox="3.25 0 450 800" style="enable-background:new 3.25 0 450 800;" xml:space="preserve">
<path d="M-0.055-19.87c0.106,0.011,0.203,0.032,0.299,0.042c-0.067,0.312-0.173,0.718-0.299,1.154
	C-0.344-17.677-0.73-16.502-1-15.806c0.26-0.01,0.588-0.01,0.945,0.01c1.312,0.053,3.105,0.24,4.04,0.188
	c-0.8,3.596-1.764,7.15-2.719,10.694C0.832-5.153,0.389-5.393-0.055-5.621v153.458c0.791-0.623,1.716-1.33,2.285-1.808
	c2.102-0.364,4.224-0.894,6.316-1.247c-0.511,4.573-2.228,9.177-1.755,13.822c-1.986,2.328-3.414,6.339-6.846,6.131v9.687
	c0.415-0.437,0.8-0.894,1.109-1.383c0.01,1.455,0.048,2.744-0.096,4.147l-1.013-0.114v11.661c0.251-0.832,0.473-1.663,0.607-2.255
	c1.013,2.255,3.385,2.161,5.255,2.816c-0.849,2.296-0.704,6.142-3.751,6.257c0.26-2.64,0.164-5.207-0.646-7.577l-1.466,2.026v18.125
	c0.916,0.198,1.803,0.385,2.681,0.613c-1.311,2.608-1.273,7.441-2.681,10.382v19.871c0.82,0.27,1.861,0.633,2.449,0.79
	c0.318-0.634,1.099-1.881,1.552-2.484c-0.183,0.863-0.434,2.765-0.482,3.669c3.625,1.122-0.704,4.697,1.061,6.609
	c2.382,2.068,1.977,5.395,1.832,8.252c-1.359,13.583-3.182,27.042-4.705,40.574c-0.646-1.06-1.206-2.172-1.707-3.305V452.24
	c0.588-9.445,1.302-18.883,3.008-28.153c0.791,0.208,2.102,0.364,2.768,0.343c-2.632,12.533-3.085,25.078-4.223,37.632
	c-0.357,0.042-1.013-0.094-1.553-0.166v152.951c1.36-12.598,3.78-25.132,5.525-37.779c0.202-4.654,1.234-9.269,1.282-13.968
	c-0.781-4.739,0.443-9.467,1.147-14.155c8.938-2.389,18.06-4.177,27.374-3.75c3.192,0.041,7.589,2.576,9.98-0.074
	c0.231-0.479,0.472-0.861,0.762-1.163c0.058-0.157,0.145-0.292,0.202-0.448c-7.289-0.435-14.579-0.881-21.888-0.446
	c-0.993-0.062-2.806-0.177-3.645-0.208c-4.339,1.394-8.64,2.64-13.075,2.931c-0.173-1.495-0.308-4.623-0.482-6.109
	c7.724-5.208,16.324-8.418,24.067-13.086c6.422-4.665,12.429-9.788,19.14-14.197c3.153-2.078,5.795-5.736,9.69-5.808
	c-0.299,2.816-0.444,5.684-0.579,8.532c-1.099,9.478-1.938,19.195-4.725,28.622c-2.768,0.071-6.538-2.162-8.707,0.218
	c-0.222,0.457-0.482,0.851-0.762,1.163c-0.039,0.095-0.097,0.177-0.135,0.292c3.182,0.811,7.251,0.623,8.707,4.604
	c-2.844,6.671-2.15,14.092-3.394,21.2c-0.626,7.244-3.461,13.915-4.387,21.087c0.309,0.833,0.964,2.433,1.282,3.243
	c3.134-5.705,3.587-12.992,8.167-17.782c-1.389-2.703-1.938-5.56-1.244-8.636c3.529,0.727,6.855,1.589,10.317,2.68
	c-1.08,3.315-2.96,6.454-4.802,9.417c-2.854,3.782-6.596,6.963-7.55,11.981c-1.427,3.419-1.784,9.47-6.421,9.177
	c2.401,2.049,2.497,4.636,0.154,7.64c1.957,8.469-3.355,15.766-8.389,21.7c-1.272-0.333-3.567-1.299-4.831-1.632
	c-1.244,4.031-3.114,7.888-5.101,11.525c-4.358,5.206-5.718,12.804-10.51,17.698c-5.458,3.089-11.262,5.363-17.173,7.286v5.612
	c2.449-1.986,6.19-2.017,9.054-2.869c-1.996,2.193-4.281,4.126-6.846,5.819l-2.208-0.572v18.303
	c0.299-0.789,0.666-1.548,1.119-2.286c6.306-11.017,14.106-21.834,24.742-28.122c3.095-3.337,5.592-7.775,10.269-8.366
	c-0.791,6.505-1.89,12.906-3.462,19.185c-1.08,2.607-2.97,5.03-2.15,8.117c0.376,12.584,0.356,25.419-3.192,37.528
	c-0.299,2.807-2.343,4.469-4.194,5.966c-0.116,5.04,0.28,10.029-1.465,14.817c-4.802-2.513-9.768-4.353-15.158-5.028
	c-2.006-0.801-4.754-0.259-6.509-1.706v7.078c0.82-1.465,2.42-2.308,4.156-2.368c6.219-0.011,12.41,2.339,17.829,5.914
	c-3.471,17-3.143,35.002-9.15,51.34c-0.125,4.312-0.376,8.407-0.646,12.669c1.716-2.442,3.79-4.969,4.156-8.129
	c2.314-13.334,6.422-26.388,6.113-40.022c0.868-4.645,1.716-9.135,2.748-13.749c1.08,2.618,2.343,5.29,3.567,7.973
	c6.875,6.837,12.043,15.993,14.415,25.638c-1.378,0.915-3.973,2.775-5.361,3.668c2.15,0.197,6.422,0.582,8.408,0.738
	c-0.039,2.358-0.174,4.47-0.55,6.912c-2.941,2.681-6.692,4.416-10.115,6.234l-0.723,3.232c5.544-3.076,11.619-4.729,17.877-5.643
	c-0.791-6.185-2.671-12.098-6.46-16.89c-4.474-9.289-9.054-18.799-15.245-27.113c0.212-1.756,0.56-3.285,0.743-4.864
	c-1.784-1.008-3.616-1.85-5.39-2.858c-1.022-3.698,0.646-7.421,1.138-11.101c2.333-8.968,3.761-18.363,7.695-26.937
	c-0.916-1.87-2.044-3.596-2.015-5.945c-0.328-16.544,3.779-32.652,7.82-48.461c9.584-4.551,16.382-14.009,26.535-17.336
	c3.404,0.542,6.518-0.644,9.517-2.024c-3.597,0.311-7.28,0.987-10.915,0.028c10.423-12.834,24.857-21.033,35.551-33.618
	c6.268-8.501,17.385-7.962,25.378-13.667c-0.762-1.09-1.36-2.162-2.112-3.263c-5.679,2.856-11.551,6.589-18.118,6.671
	c1.003-2.982,1.996-5.975,3.172-8.936c1.495-0.687,2.95-1.217,4.445-1.903l-0.289,2.077c-0.858,0.875-2.401,2.466-3.259,3.327
	c4.494,3.888,5.622-4.874,7.656-7.96c0.906-0.312,2.555-0.956,3.355-1.486c4.194-3.794,8.446-7.743,11.137-13.022
	c5.708,6.734,1.948,18.239-6.007,20.868c0.154,0.758,0.656,2.339,0.964,3.149c4.715-3.106,10.288-4.738,14.541-8.699
	c8.37-7.42,19.111-10.413,27.885-17.356c10.066-7.513,21.705-12.283,31.414-20.411c-1.86,0.053-3.943,0.417-5.399,1.662
	c-8.147,5.666-17.23,9.459-25.243,15.32c-10.24,7.473-21.917,11.671-32.157,19.144c1.147-5.123,1.871-10.56,5.149-14.77
	c2.468-3.501,4.812-7.233,6.248-11.389c6.373-1.425,8.119-8.563,10.654-13.875c0.55-5.467-6.286-10.86-1.031-15.652
	c-0.945-0.237-2.498-0.82-3.414-1.245c-1.32,4.374-1.146,8.927,0.569,13.178c2.198,4.541-1.417,8.677-3.144,12.574
	c-0.906-0.415-2.776-1.091-3.885-1.371c-4.32,5.03-9.662,10.153-16.373,10.932l1.272-2.732c-0.424-0.292-1.186-0.675-1.62-0.977
	l-1.61,7.192c-5.236,2.42-10.462,7.034-16.537,5.644c-0.993-9.844,3.896-19.612,8.727-27.75c1.88-3.139,2.218-6.858,2.343-10.443
	c-4.368,5.205-6.402,12.085-10.201,17.782c-0.82-0.021-2.652-0.136-3.674-0.032c0.704,4.334,2.044,8.854,0.424,13.136
	c-3.115,8.585-7.328,16.898-9.189,26.003c-2.681,2.204-5.516,4.364-8.62,6.268c-2.401-3.524-4.85-6.869-7.839-9.998
	c-0.27-5.498-2.054-11.027-0.781-16.671c0.058-1.787,0.617-5.081-1.871-5.185c-4.243,4.687-1.495,11.183-1.408,16.813
	c-3.471-1.808-6.45-4.208-9.401-6.766c1.977-5.84,0.53-14.34,6.682-17.096c0.424-0.415,1.012-1.536,1.292-2.015
	c-2.063,0.196-4.542,2.254-6.152-0.332c0.164-4.48,1.09-8.574,1.726-12.931c-2.179,3.762-2.864,8.294-3.973,12.524l-5.082-1.321
	c-0.029,0.895-0.096,2.692-0.125,3.585c2.179,0.022,4.224-0.166,6.249-0.187c-0.386,3.17-0.936,6.454-0.318,9.698
	c-0.337,1.517-0.916,4.821-1.263,6.371c-4.291-1.852-9.131-4.2-10.905-9.011c-0.82-3.825-0.81-7.618-0.328-11.288
	c1.427-3.419,4.069-6.184,5.178-9.686c-2.314,1.383-4.358,3.014-6.721,4.593c0.569-7.813,1.851-15.807,3.896-23.415
	c1.225-4.031-1.292-8.49,0.742-12.294c3.674-3.751,8.292-6.339,11.715-10.352c8.601-12.23,20.837-21.157,33.458-28.008
	c3.259-7.128,9.951-11.516,14.261-18.01c4.657-6.568,11.108-11.401,15.62-18.012c-1.668-0.071-5.149-0.26-6.817-0.322
	c0.424-1.88,1.379-5.425,1.755-7.139c1.475,0.198,4.522,0.811,5.939,1.186c-0.511-1.415-1.282-3.949-1.649-5.333
	c0.569-1.829,1.157-3.669,1.736-5.497c4.561,1.371,8.62,4.23,11.772,8.105c1.457,0.209,4.166,0.916,5.594,1.289
	c0.51-0.79,1.33-2.191,1.648-2.828c-1.283-1.059-2.594-1.942-3.867-3.002c11.301-1.05,22.217,2.723,33.006,5.528l0.723-3.263
	c-12.785-1.341-25.34-5.321-38.01-7.899c0.607-2.722,1.08-5.508,1.515-8.303c1.62-1.184,3.346-2.192,4.966-3.387
	c-2.382-0.625-4.609-1.206-7.02-1.674c-0.81,2.879-1.659,5.924-2.459,8.782c-0.791-0.197-2.498-0.832-3.462-1.082
	c-0.067,0.364-0.395,0.998-0.453,1.331c1.07,0.458,3.442,1.081,4.561,1.372c-0.993,0.655-2.796,1.965-3.78,2.63
	c-7.945-3.514-16.392-5.529-23.662-10.498c5.342-3.668,10.182-8.023,15.727-11.099c2.7-0.749,2.844-2.869,1.08-4.781
	c1.485-2.869,4.966-2.682,7.492-3.481c0.154-0.686,0.617-2.005,0.771-2.691c-0.521,0.042-1.832-0.115-2.459-0.281
	c-2.594,2.588-5.708,4.479-8.697,6.61c-6.2,5.976-13.316,12.991-22.331,12.108c-8.177-2.494-16.093-6.174-23.797-9.999
	c2.073-3.969-0.415-7.877-1.938-11.535c-3.992,1.32-4.069,4.729-0.819,7.369c-6.113,2.587-11.175-3.254-15.765-6.798
	c-3.355,0.031-6.566-0.613-8.543-3.845c8.659-1.185,16.575,3.222,25.079,2.712c6.181,0.166,11.205,4.719,16.44,7.535
	c1.784-3.502,3.317-7.285,5.544-10.496c2.295,0.956,4.763,1.964,7.106,2.733c-0.666-2.338-1.263-4.833-1.919-7.171
	c1.292,0.156,3.52,0.737,4.677,0.853c0.019-0.915-0.029-2.9,0.048-3.971c-2.584-0.488-4.995-0.935-7.415-1.382
	c-1.157-2.297-2.131-4.718-3.134-6.984c-2.15,0.541-4.079,0.946-6.248,1.642c-1.823-6.08,0.067-12.294,0.733-18.25
	c-3.076-4.25-7.531-6.121-12.053-7.659c-0.675-1.445-1.861-4.469-0.009-5.249c5.795-3.388,12.197-5.685,18.185-8.48
	c7.492-2.754,11.831-10.851,19.689-12.971c4.455-1.206,8.958-3.273,13.596-2.972c3.905,2.089,5.949,6.412,9.834,8.522
	c4.051,2.141,7.406,5.176,10.279,8.823c7.896,2.234,15.167,6.475,21.646,11.952c1.225,2.857,1.832,6.09,4.069,8.116
	c3.635,3.285,9.884,8.356,12.795,1.341c-4.879-0.728-9.632-1.964-13.104-5.945l1.765-1.892l-0.502,2.225l5.4,1.403l-0.136-2.391
	c13.798,2.858,28.368,4.48,40.777,12.056c6.22,5.217,13.903,7.587,21.628,9.062c-1.022,6.069-1.842,11.983-4.561,17.429l4.473,0.987
	l0.059-2.515c2.902,0.572,5.91,1.351,8.765,2.089c1.263-4.905-3.019-5.31-6.036-6.807c-1.456-3.991,0.656-8.169,0.858-12.077
	c3.683,0.78,7.81,1.112,10.876,3.908c3.385,2.869,5.438,7.202,8.389,10.507c2.643-2.026,5.873-2.276,8.93-2.38l1.002-4.448
	c-3.77-1.164-7.549-2.317-11.32-3.492c0.338-2.983,2.17-6.683-0.857-8.896c-0.424,1.154-1.476,3.597-1.899,4.75
	c-4.726-1.424-9.556-2.307-13.499-5.685c-5.102-4.219-11.215-7.618-14.512-13.895c-8.996-2.536-17.549-6.371-26.391-9.592
	c-6.557-3.689-15.014-6.423-18.08-14.457c-3.566-1.278-7.23-2.952-9.034-6.87c-0.704,0.905-1.919,2.578-2.622,3.481
	c0.105-1.257-0.068-3.461,0-4.521c9.806-1.07,21.097-1.216,28.512,6.86c0.309-1.372,0.791-4.313,1.128-5.841
	c1.765,0.447,5.312,1.019,7.058,1.466c-0.511,4.562,0.83,9.073,5.468,10.112c-0.492-2.318-1.331-4.511-2.15-6.9
	c6.653,0.28,14.251,0.81,18.956,6.734c3.028,0.8,5.689,2.37,7.377,5.352c1.688-0.821,3.433-1.818,5.178-2.088
	c10.442-0.915,20.895,1.091,30.113,6.381c12.197-4.24,24.395,2.723,36.746,2.317c9.738,0.728,19.911-4.24,29.438,0.405
	c4.475,4.063,6.895,9.759,9.941,14.893c4.377,3.679,8.986,7.046,13.962,9.592c4.454,2.619,9.7,1.631,14.357,3.388
	c1.388,1.995,2.555,4.271,3.751,6.401c1.543-1.6,3.027-3.003,4.725-4.593c0.453-2.754,1.061-5.487,1.688-8.231
	c-0.531,0.062-1.668-0.062-2.199-0.021c-1.87,0.966-3.654,2.12-5.428,3.305c-0.232-1.154-0.541-3.586-0.617-4.688
	c-8.303,7.806-19.594,1.237-25.822-6.173c1.109-0.437,3.346-1.486,4.455-1.913c1.552,1.31,3.307,2.494,5.254,3.523
	c0.078,0.395,0.059,1.278,0.136,1.673c0.183-0.863,0.733-2.515,0.926-3.367c-2.661-0.874-8.052-1.56-5.235-5.893
	c0.992-0.644,2.786-1.995,3.75-2.462c0.386-0.988,1.003-2.993,1.35-3.825c-4.31-0.208-7.819,2.682-10.847,5.706
	c-3.24-0.5-6.22-2.172-8.071-5.176c0.126-3.586,0.367-7.681-3.51-9.062c-3.191,1.528-6.547,2.276-9.97,1.019
	c1.1-1.892,2.343-3.721,3.413-5.446c2.083-0.354,4.378-0.832,6.471-1.195c0.192-0.862,0.936-2.66,1.32-3.648
	c-3.085,0.281-6.007,0.603-8.938,0.946c-2.15,2.857-3.51,6.671-6.22,9.052c-7.819,1.933-15.843,0.229-23.71,0.883
	c-4.773,0.395-9.498-1.019-14.136-2.037c1.485-2.869,2.257-6.288,4.851-8.159c4.521,0.821,8.852,2.484,13.199,3.264
	c0.434-1.154,1.438-3.419,1.861-4.593c-0.916-0.406-2.768-1.071-3.684-1.486c-0.202-0.614-0.646-1.632-0.848-2.224
	c-2.846,0.717-5.65,1.964-8.389,0.706c0.365-3.138,0.944-6.442,1.35-9.768c-2.72,0.935-4.281,3.419-5.256,6.235
	c-5.129,1.195-10.326,0.385-15.359-0.374c-1.109-1.019-2.275-1.86-3.395-2.868c-3.943,0.416-7.666-0.915-11.252-2.203
	c0.511-1.497,0.857-3.035,1.359-4.542c3.876-0.083,8.707,0.821,10.741-3.71c-3.134-0.271-6.335-0.208-9.632-0.509
	c0.096-2.692,1.195-5.311,3.384-6.901c7.425,2.827,13.769,9,21.656,10.507c6.258,0.551,12.468,0.53,18.407,2.442
	c0.105,2.546-4.232,7.025-0.983,8.231c1.341-0.021,3.827,0.093,5.023,0.052c0.135-1.413,0.569-4.032,0.655-5.259
	c0.512-0.769,1.852-2.234,2.479-2.796c2.266,1.133,4.57,2.089,6.875,3.045c-1.793-1.725-2.189-6.724-5.477-6.298
	c-5.178,0.654-10.424,1.632-15.042-1.746c-11.069,2.193-21.956-3.18-30.788-10.175c0.887-1.756,2.584-2.577,3.848-3.7
	c1.88-3.118,3.75-6.256,4.984-9.561c-2.439,1.185-4.801,2.733-7.048,4.5c-4.204-1.465-10.886-0.104-12.304-5.727
	c-1.899,0.956-3.365,4.552-5.67,2.869c-5.38-3.014-10.684-7.836-12.583-14.311c3.114-0.458,6.19-2.193,9.208-1.403
	c3.201-0.063,7.781,4.198,9.314-1.185c-1.571-0.416-4.426-1.153-5.814-1.694c0.117-0.52,0.502-1.507,0.617-2.026
	c2.314-2.827,4.311-5.758,5.111-9.333c-5.979-0.292-5.757,8.45-11.215,9.561c-8.407,1.611-17.057,3.524-25.647,2.193
	c-1.679-1.528-3.327-3.201-4.792-4.864c-0.579-3.409,1.127-6.568,1.697-9.873c-2.431,2.64-4.59,5.499-5.584,9.229
	c-5.139,1.185-4.83-4.698-5.168-8.398c2.237-1.767,4.475-3.533,6.287-5.611c-2.854,0-5.814,0.488-8.736,0.811
	c-1.138-3.919-2.844-7.597-3.413-11.744c2.979-7.369,9.208-12.627,11.754-20.276c1.505-4.49,3.481-8.866,3.905-13.646
	c-6.76,3.128-4.744,12.876-10.25,17.241c-1.484-1.662-3.152-3.159-5.072-4.385c-0.992,2.993-1.803,5.861-2.814,8.844
	c-2.902-0.561-5.949-1.185-8.987-1.788c-0.366,0.812-0.704,2.349-1.013,2.994c2.527,0.664,5.062,1.319,7.646,1.808
	c0.328,1.527,1.022,4.428,1.389,5.778l-6.017-1.569c1.909,1.237,3.809,2.453,5.718,3.658c-1.727,6.257-5.091,11.537-8.447,16.815
	c-2.256,0.301-4.338,0.676-6.565,0.811c-0.888,3.938-1.88,7.659-3.954,10.933c-2.689,0.021-5.582,0.156-8.437,0.145
	c0.491-3.679,2.169-6.662,5.641-7.94c0.029-1.61,0.048-3.231,0.251-4.822c-2.699,0.031-5.236,0.084-7.955,0.281
	c0.02,2.91,1.312,6.131-1.33,8.157c-1.948,2.745-5.197,3.004-8.119,3.326c3.124-4.988,5.217-10.59,5.217-16.566
	c-3.317,1.31-6.277,3.264-9.103,5.436c0.145-1.424,0.434-4.24,0.742-5.602c-2.835,1.434-5.505,2.911-8.196,4.365
	c-1.465-0.187-4.319-0.936-5.91-1.341c3.703-18.759,8.784-36.977,12.322-55.777c-0.385-2.817-0.723-5.799-2.323-8.377
	c4.647-1.33,9.815-1.081,14.376-2.775c9.691-5.071,20.365-7.732,30.865-10.434c3.24-0.956,6.924-0.915,9.72-2.91
	c4.715-3.835,10.847-4.23,16.536-5.644c10.028-7.348,21.117-13.313,32.591-18.115c0.81-2.151,1.466-4.324,1.977-6.547
	c-4.618,2.598-8.234,6.724-12.805,9.156c-0.906-0.416-2.94-1.123-3.886-1.372c-5.438,7.078-13.538,10.954-21.3,14.176
	c-2.902,1.766-4.687-2.298-6.683-3.908c0.984-5.155,4.233-9.208,7.059-13.531c-4.994-2.401-7.607-7.233-10.452-11.765
	c-0.028,3.076,0.164,6.017,0.511,8.979c2.18,1.486,4.406,2.785,6.596,4.261c-2.354,3.003-5.352,5.124-8.457,7.015
	c-3.22,8.408-12.736,5.924-18.918,9.572c-11.068,5.965-23.42,7.109-34.779,12.118c-8.601,2.474-16.41,6.599-24.568,10.07
	c-8.099,1.705-16.112-0.748-23.816-3.097c3.076-6.277,6.914-12.139,11.175-17.73c4.079-12.138,14.309-19.631,22.813-27.707
	c5.872-9.707,12.294-18.884,20.788-26.086c6.258-4.697,12.468-9.966,18.89-14.633c5.892,0.635,11.263,4.386,17.25,4.677
	c3.229-0.26,6.017-2.234,8.986-3.45c-7.607-1.268-15.707-0.281-22.978-3.814c3.963-3.492,8.611-6.257,13.73-5.841
	c-0.299-0.977-0.665-3.055-0.916-4.199c3.27-3.326,7.078-6.131,10.857-8.771c0.993,0.083,3.24,0.499,4.252,0.562
	c3.568-9.198,13.847-10.133,20.057-16.119c3.722,0.593,7.366,1.538,10.982,2.671c0.328-2.993,0.857-6.121,1.35-9.063
	c-3.162,1.341-6.432,2.495-9.835,3.409c7.724-5.217,13.402-13.344,21.694-17.335c3.443-7.961,10.848-12.555,17.781-16.535
	c7.434-0.956,14.732,0.208,21.82,2.234c0.309-0.644,0.828-2.14,1.137-2.785c-7.347-1.715-14.723-3.284-21.936-5.519 M5.402-21.938
	 M286.898-0.311c-4.311,4.303-9.913,6.828-13.848,11.599c-6.219,7.607-13.652,13.812-21.203,19.818
	c-1.571,1.757-3.837,0.624-5.861,0.645c1.272-1.123,2.564-2.411,3.645-3.575c0.347-2.983,0.838-5.935,1.176-8.917
	c-1.061-3.544-2.391-7.327-4.193-10.507c-1.592,4.822,0.539,9.551-0.01,14.28c-1.707,5.363-7.271,6.984-10.926,10.569
	c-5.775,5.539-12.438,9.779-19.207,13.802c-5.043,3.044-11.127,3.99-15.562,8.085c2.459-14.737,4.629-29.734,8.553-44.252
	c7.473-0.426,15.032-1.891,22.438,0.218c3.914-0.977,8.264-1.673,11.291-4.667c-6.026-1.569-12.371,2.754-18.281-0.779
	c-4.426,1.736-9.18,1.954-13.654,0.967c1.822-4.406,6.249-5.425,9.951-6.994c-1.581-0.416-4.744-1.237-6.219-1.435 M244.752,34.318
	c-1.148,4.396-6.065,5.3-9.16,7.93C235.379,36.407,240.547,35.046,244.752,34.318z M6.328,416.47
	c-5.082-1.319-2.391-8.034-2.382-11.837l2.845,0.737C6.482,409.09,6.501,412.706,6.328,416.47z M6.386,222.011
	c1.37,3.605-1.552,6.11-4.802,4.905c0.916-4.105,2.122-7.96,3.192-12.003l1.542,0.561c0.164-0.675,0.617-2.006,0.781-2.692
	C7.08,215.858,6.704,219.018,6.386,222.011z M136.566,554.525c2.941-2.669,6.537-5.175,10.481-5.592
	c-2.604,4.937-7.01,8.836-8.147,14.686C137.105,561.178,135.717,557.562,136.566,554.525z M124.918,566.872
	c-1.533,2.318-4.05,3.825-6.566,4.614C116.548,569.034,123.905,563.173,124.918,566.872z M121.013,564.056
	c-1.321,2.891-6.267,3.243-7.048-0.021C115.459,562.611,120.511,561.022,121.013,564.056z M112.431,565.615
	c3.278,4.105-0.887,7.732-4.31,9.551C109.23,571.663,110.599,568.588,112.431,565.615z M283.35,266.866
	c2.256,1.133,4.754,1.954,7.261,2.785l-1.032,4.625l-2.671-1.6c-0.327,2.255,0.492,5.373-1.765,7.14
	c0.463-2.765,0.906-5.55,1.369-8.335c-0.992-0.062-3.133-0.26-4.242-0.551C282.568,269.558,283.041,268.228,283.35,266.866z
	 M269.311,268.83c3.529,0.737,7.029,1.632,10.597,2.931c0.694,2.889,1.533,5.831,2.392,8.761
	c-2.334,5.186-6.817,9.447-12.053,10.434c-2.584,0.24-6.547-0.8-5.197-4.614c-1.379-0.53-4.368-1.497-5.949-1.902
	c-0.116,1.975,0.115,4,0.135,6.184c-3.162-3.17-5.41-7.369-7.299-11.65c-0.858-2.941,1.678-3.004,3.74-3.211
	c0.936-1.902,2.565-4.75,5.227-3.876c6.412-0.862,7.077,9.624,13.094,9.011c-0.058-2.006-2.883-5.093,0.348-6.049
	c2.902-4.677-3.818-3.181-5.959-1.934L269.311,268.83z M277.901,294.22c-2.507-0.843-0.405-4.999,1.745-4.792
	C282.501,290.166,280.158,294.614,277.901,294.22z M244.607,250.279c4.82,0.894,9.893,1.496,14.463,3.585
	c2.324,3.855,6.923,5.768,8.543,9.811l-1.1,1.892c-6.537,2.276-13.885,0.54-20.672-0.655
	C241.28,262.085,243.912,254.8,244.607,250.279z M231.252,249.895c0.569,2.671,2.324,4.573,4.832,5.404
	c1.455,3.264,4.242,5.82,4.396,9.655c-6.432-0.582-12.776-3.689-19.236-1.756c-3.703-0.769-7.387-1.548-11.233-2.369
	c1.302-4.355,5.65-5.769,9.487-6.402c-1.426-0.374-4.474-0.977-5.92-1.351c1.021-2.276,2.354-4.469,3.789-6.434
	C222.045,247.494,226.691,248.522,231.252,249.895z M219.721,226.448c0.578-1.111,1.514-3.762,1.928-4.926
	c0.762,0.385,2.189,1.465,3.066,2.068c2.266,7.099,5.217,14.197,4.995,21.918c-3.655-1.663-12.487,0.374-11.166-6.339
	c-0.665,0-1.851,0.051-2.497-0.115c-0.801,3.596-3.761,4.812-6.779,4.032C212.268,237.185,215.834,231.77,219.721,226.448z
	 M184.324,250.352l5.553,1.444c3.473-4.344,8.602-3.19,13.076-2.94l1.117,6.267c0.907-3.368,3.481-4.354,5.814-5.727
	c0.223,4.947-2.275,9.364-7.26,9.883l1.359-3.814c-3.848-2.276-7.531,3.658-11.542,0.624c-2.468-2.463-5.304-4.105-8.774-3.554
	C183.822,251.848,184.054,250.819,184.324,250.352z M227.83,143.712c1.734-0.27,3.596-0.332,5.322-0.603
	c-7.945,4.802-16.913,8.085-25.89,9.187C210.975,144.023,221.359,147.1,227.83,143.712z M203.85,150.333l-1.119,2.774
	c-8.157,4.937-17.404,7.244-26.622,8.636c-4.532,0.811-8.919,3.108-13.586,2.255C176.012,158.47,189.588,152.577,203.85,150.333z
	 M149.747,170.088c3.125-0.457,6.383,0.749,9.662,0.333c4.946,0.385,10.086-0.093,15.312-0.166
	c0.818,3.087-5.496,10.32,0.038,11.038c-3.066,11.494-4.754,23.56-8.157,34.971l-1.225,0.945c-0.405,1.164-0.896,3.378-1.312,4.355
	c-1.099-0.291-3.674-0.77-4.946-1.102c-1.003,2.266-1.832,4.417-2.845,6.672c-2.893-0.561-5.862-0.79-8.784-1.185
	c-8.707,1.362-15.013,9.302-20.856,15.932c-2.815,4.323-7.261,7.691-8.89,12.689c-11.773,7.618-24.385,13.022-37.374,17.065
	c1.206-6.205,2.314-12.606,5.988-17.813c2.324-3.554,5.322-8.002,9.883-6.651c0.078-0.343,0.396-0.987,0.473-1.319
	c5.901,2.078,11.783,3.605,17.809,5.165c-0.945-3.304-0.569-6.485,0.945-9.509l-4.127-1.081c-0.212,1.756-0.617,5.082-1.003,6.786
	c-4.956-0.385-9.71-1.621-14.502-2.681c0.964-1.372,3.047-3.918,3.982-5.092c0.559-0.239,1.417-0.374,1.977-0.593
	c-2.179-0.748-4.484-1.704-6.586-2.795c1.138-5.851,1.456-13.199,6.914-16.669c-1.812-4.625,1.283-8.699,3.616-12.43
	c2.786,0.353,5.554,0.727,8.234,0.686c-1.07-1.174-3.269-3.367-4.532-4.427c2.574-0.957,5.101-1.756,7.656-2.712
	c4.397,0.592,8.688,2.442,12.911,1.548c4.194,0.728,8.244,1.424,12.207,3.169c1.918,1.944,4.542,2.983,6.894,4.5
	c2.266,1.86,4.136,3.97,5.978,6.277c0.521,0.655,1.283,1.766,1.649,2.4c-0.376-2.795-1.312-5.404-2.247-7.992
	c-3.605-1.123-5.303-5.55-9.237-6.018c-5.978-1.746-12.043-3.128-18.185-4.199c3.163-5.862,10.77-0.093,15.504-4.095
	c-10.693-2.432-21.656,2.328-32.195-0.769c5.737-5.404,12.834-8.626,18.59-14.186C134.907,175.628,142.197,172.271,149.747,170.088z
	 M153.999,244.096c-1.62,0.478-3.038,0.831-4.667,1.33c-0.926,3.368-2.517,6.755-6.354,5.944c-2.208,0.136-4.31,0.5-6.403,0.863
	c-4.049,0.042-7.926,0.104-11.927-0.021c2.16-8.844,8.91-15.048,15.688-19.819c5.12-3.357,11.069-0.728,16.382,0.302
	C158.174,236.686,154.723,240.125,153.999,244.096z M86.243,316.574c-9.816,4.146-18.667,10.705-28.937,13.822
	c0.762-3.409,1.89-6.922,3.134-10.215c2.661-3.648,2.941-8.647,4.85-12.669c4.117-8.699,5.862-18.738,10.597-27.094
	c1.099,0.281,3.259,1.205,4.31,1.673c0.077-1.081,0.424-3.347,0.54-4.573c0.945,0.249,2.96,0.945,3.924,1.195
	c-0.829,2.141-1.629,4.282-3.008,5.902c1.707,1.372,3.616,2.588,5.293,4.105c0.444,5.54-0.974,11.141-1.215,16.691
	C85.404,309.123,85.742,312.833,86.243,316.574z M19.201-7.856c0.386-1.694,0.762-3.409,1.321-5.082
	c1.253,0.333,2.642,0.873,3.915,1.195c0.549,4.312,1.292,8.491-0.299,12.586l-6.981-1.819c1.967-1.279,3.934-2.578,5.872-3.71
	C22.026-5.476,20.049-7.086,19.201-7.856z M164.509,31.366c2.96,0.967,5.949,1.913,8.909,2.869
	c-1.938,3.481-6.393,4.666-9.689,2.899C163.979,35.222,164.238,33.289,164.509,31.366z M157.287,94.44
	c-2.999,2.109-5.872,4.448-8.861,6.558c-1.61-1.133-3.038-2.224-4.657-3.19c-0.27,7.888-7.068,14.259-14.299,13.635
	c0.569-3.284,1.446-6.485,2.815-9.571c3.645-5.02,6.017-11.11,10.606-15.152c5.101,0.415,9.874,3.107,14.444,5.206
	C157.335,92.632,157.229,93.879,157.287,94.44z M141.831,56.226c-2.671,3.669-3.394,8.356-5.14,12.419
	c-1.002,2.982-2.015,5.976-3.008,8.99c-4.966,7.94-11.088,15.017-14.299,24.142c-1.389-0.541-4.011-1.59-5.438-1.964
	c0.009-3.793,2.921-6.287,4.474-9.499c-0.829-0.052-2.333-0.072-2.96-0.238c-0.916,4.105-7.839,5.747-6.055,0.062
	c-4.792,1.112-3.992-3.929-6.73-5.914c-0.154,1.403-0.685,4.531-1.022,6.069c-6.393-2.204-12.4-5.394-18.05-9.406
	c-2.825-1.621-5.718-2.931-8.659-4.042c0.434-5.686,6.152-7.286,7.029-12.659c3.558,0.571,6.615,2.63,9.267,5.135
	c-0.704,1.61-1.254,3.294-1.958,4.905c3.645,0.218,6.952,1.268,10.163,2.64c0.492-2.214,0.839-4.479,0.974-6.621
	c-2.777-1.07-5.641-2.557-7.791-4.916c1.562-2.483,3.404-4.728,4.966-7.212c-1.263-0.333-3.809-0.988-5.043-1.497
	c2.295-1.195,4.715-0.769,7.126-0.312c1.735-1.008,3.346-2.213,4.956-3.419c3.5,1.631,6.711-2.951,3.635-5.736
	c-2.381-2.785-6.672,0.603-9.69,0.55c0.617-2.712,2.43-4.812,4.185-6.692c1.408,0.551,4.175,1.631,5.563,2.161
	c1.196-10.548,11.734-13.406,18.696-18.291c0.357-0.821,1.244-2.567,1.755-3.336c5.197-2.993,10.915-6.028,17.057-5.716
	c-0.203,3.939,2.141,6.9,5.477,7.764c-2.864,8.304-3.442,17.574-6.846,25.358C143.566,51.425,142.708,53.742,141.831,56.226z
	 M62.407,298.626c-2.198,1.601-4.725,3.107-7.135,4.116c0.675-5.258,4.763-8.543,6.682-13.292c0.82,0.042,2.488,0.114,3.317,0.156
	c-0.858,2.296-1.745,4.78-4.802,4.178c-0.096,1.236-0.125,3.584-0.193,4.645L62.407,298.626z M22.701,214.31l-0.106-0.031
	c0.019,0.936,0.501,1.808,1.745,2.442c-0.183,0.863-0.733,2.525-1.08,3.347c-2.034-2.172-4.069-4.324-5.515-6.87
	c1.234,0.322,3.51,0.915,4.85,1.081c-0.029-0.416,0.048-0.884,0.193-1.361c-0.299-2.682-3.674-3.284-4.898-5.644
	c0.839-3.762,1.369-7.607,0.743-11.567c-1.09-3.367,2.748-3.991,4.898-3.803c-0.029,2.359-0.048,4.697-0.077,7.025
	c0.299,2.442,2.43,7.161-1.89,6.204l-0.579,3.316c0.993,0.072,2.941,0.395,3.934,0.467c-0.666,1.143-1.688,2.619-2.131,4.001
	C22.835,213.333,22.816,213.791,22.701,214.31z M24.812,231.136c-0.955-0.25-2.662-0.862-3.578-1.278
	c0.569-2.577,1.003-5.186,1.572-7.743C23.858,224.92,24.465,228.153,24.812,231.136z M29.701-1.505
	c-1.562-2.037-1.022-4.417-0.675-6.683c0.771,0.198,2.362,0.613,3.201,0.655c-0.337,1.539-0.877,4.667-1.061,6.226
	c0.752-0.343,2.372-0.821,3.114-1.164c0.309-0.655,0.984-2.1,1.292-2.754c2.825,0.915,5.438,1.965,8.022,3.17
	c-1.002,4.448-5.197,5.903-9.073,5.248l1.688-2.276C34.03,0.178,31.812-0.404,29.701-1.505z M32.517,15.164
	c-1.147-0.125-3.172-0.104-4.31-0.239c0.81-2.12,1.745-4.063,2.555-6.184C31.812,10.81,33.008,12.94,32.517,15.164z M137.26-6.639
	c-2.092,1.081-4.464,1.174-6.797,1.122c0.781-1.964,1.601-4.116,2.97-5.748c0.386-0.977,1.311-2.909,1.716-3.897
	c4.975,0.935,11.021-2.016,14.579,3.065c-1.225,4.761-7.415,3.866-6.123-1.943C140.866-12.221,138.658-9.892,137.26-6.639z
	 M121.022,7.412c-1.225,4.011-1.755,7.857-0.819,11.899c-3.028,6.1-9.691,8.875-15.428,11.193c0.791-5.051,2.787-9.416,4.647-13.988
	c1.774-6.413,9.064-10.497,14.888-9.52c1.292,3.222,1.225,6.475-0.164,9.727c-3.452-1.807-2.102-5.611-1.456-8.521L121.022,7.412z
	 M104.158,98.535c-5.968,5.696-13.065,9.645-20.191,13.76l-3.654-0.956c-1.128,2.785-3.336,4.375-5.93,5.508
	c-2.517-1.559-5.082-2.765-7.666-3.98c0.656-1.466,2.141-4.324,2.806-5.778c-0.762-1.112-2.121-3.274-2.883-4.376
	c6.538,1.518,13.037,3.939,19.815,2.994c-1.639-0.25-3.423-0.541-5.159-0.998c0.299-2.078,1.34-3.793,2.729-5.436
	c-2.498-0.104-4.821,0.551-6.634,2.609c-3.047-0.593-6.026-1.559-9.035-2.338c1.793-2.786,3.712-5.374,5.631-7.94
	c0.819-0.696,1.495-1.414,2.16-2.151c-5.12-0.426-2.266-5.653-2.198-8.886c7.887,2.942,15.437,6.714,22.669,11.131
	C99.405,93.505,107.398,93.047,104.158,98.535z M109.394,99.896c-0.376,1.725-1.543,5.394-1.929,7.088
	c-3.442,4.177-8.552,4.469-13.229,2.91C98.074,104.718,103.551,101.278,109.394,99.896z M86.185,153.398l1.302-0.582
	c-0.694,3.097-1.263,6.361-2.141,9.582c-2.208-2.941-1.958-7.036-3.442-10.123l3.741-0.301c-0.395-1.185-0.81-2.37-1.35-3.596
	c2.468-2.089,5.293-3.512,8.273-4.74l3.635,0.957c-0.55,1.652-1.09,3.347-1.784,4.958c-2.401,2.441-5.467-1.05-8.08-1.373
	C86.224,149.418,86.127,152.099,86.185,153.398z M90.273,196.591c0.212,2.785,1.909,5.02,2.632,7.742
	c-2.478,2.806-6.354,2.879-9.507,4.219C84.835,204.406,84.729,195.873,90.273,196.591z M58.994,183.412
	c-2.469,3.513-6.104,5.466-10.066,3.7c0.713-1.621,2.092-4.885,2.796-6.506c-0.279-0.977-0.896-2.753-1.167-3.751
	c-0.877-4.375,0.791-8.106,3.635-10.996c4.609-2.588,9.758-6.132,15.196-4.895c3.336,2.307,7.704,4.521,9.276,8.75
	c-4.387,6.081-11.638,9.271-17.568,13.324c-2.276-1.123-4.821-2.526-7.396-2.287C55.34,181.718,57.133,182.737,58.994,183.412z
	 M43.2,194.678c-0.039-1.288,0.212-3.928,0.164-5.206c-1.109,1.153-3.133,3.522-4.242,4.687c-0.473-0.852-1.485-2.379-2.122-3.273
	c-1.668-0.779-3.365-1.413-5.043-2.214c0.347-1.538,0.685-3.077,0.877-4.645c2.526-0.073,5.024,0.041,7.473,0.312
	c-0.598-1.06-1.726-3.523-2.121-4.718c4.599,1.912,9.912,3.668,11.311,9.447c-1.871-0.666-5.564-2.152-7.386-2.993
	C44.299,188.265,47.192,192.63,43.2,194.678z M47.828,235.501c0.743-1.809,1.292-3.472,2.025-5.27
	c-3.143-0.26-4.57-3.544-6.219-5.955c1.061-0.988,3.115-2.64,3.982-3.493c1.89,0.489,3.751,1.153,5.622,1.819
	c2.834,3.097,7.366,2.287,10.828,3.357c-0.607,3.461-1.369,6.88-2.343,10.435C57.239,233.962,52.572,237.621,47.828,235.501z
	 M61.154,238.234c-0.26,1.922-0.482,3.668-0.588,5.632c-3.722,0.125-7.29-0.436-10.78-1.351c0.116-0.499,0.424-1.164,0.501-1.497
	l1.716,0.634C52.765,236.779,58.04,238.691,61.154,238.234z M33.452,218.737c5.39-0.062,11.957,4.365,9.787,11.037
	c2.989,1.673,3.24,5.727,3.548,8.886c-5.033-2.214-8.919-6.651-13.21-9.936C34.493,225.337,34.233,222.011,33.452,218.737z
	 M40.751,219.174c-4.522-0.79-6.625-5.696-10.838-7.151c1.061-3.159,1.967-6.537,4.464-8.605c2.902-1.777,6.431-5.57,9.401-1.548
	C43.817,207.679,41.214,213.343,40.751,219.174z M29.672,199.667c0.347-1.548,0.887-3.211,1.533-4.677
	c1.986,0.167,3.934,0.478,5.824,0.977c-0.145,0.686-0.318,2.266-0.511,3.118C34.252,199.396,32.015,199.719,29.672,199.667z
	 M38.61,40.439c0.289-3.544,1.061-6.963,1.977-10.341c0.598,0.343,1.996,0.884,2.787,1.081c0.29,2.432,0.743,4.906,2.507,6.797
	C45.398,42.362,41.513,41.739,38.61,40.439z M39.671,49.222c-0.656,2.171,0.328,6.038-2.488,6.578
	c-0.434-4.084-1.002-8.231,0.376-12.201C38.688,45.345,41.04,46.862,39.671,49.222z M55.571,3.598
	c2.179-1.434,4.339-2.848,6.634-4.074c0.048,1.278,0.347,3.721,0.386,4.999c-0.743,1.071-2.063,3.264-2.816,4.324
	c0.145-1.403,0.26-2.66,0.405-4.063L55.571,3.598z M64.288,19.426c1.253,2.671-2.025,5.269-0.887,7.732
	c0.926,1.871,1.852,3.741,2.613,5.581c2.343,5.29-3.163,9.645-7.396,9.832c-5.824-4.053-8.958-11.027-13.393-16.711
	c-3.23-3.545,0.453-12.534,5.621-9.375c0.347-2.276,0.685-4.532,1.013-6.787C56.795,10.976,62.899,13.637,64.288,19.426z
	 M102.779-9.279c2.015-0.011,3.915-0.26,5.969-0.437l-0.771,3.419c-4.715-0.686-9.15,2.692-14.068,2.13
	c0.472-1.33,1.427-4.146,1.899-5.476c-4.561,3.886-9.796,4.697-14.714,1.964c0.723-3.971,1.562-7.722,2.603-11.629 M95.557-22
	 M121.013-5.247c-0.405,0.967-0.945,2.64-1.167,3.659c-1.109-0.281-3.25-0.479-4.243-0.551c-4.339,1.393-8.967,1.819-13.249-0.011
	C108.594-3.064,114.668-4.748,121.013-5.247z M119.952-8.801c-3.201,0.811-6.364,1.434-9.719,1.455
	c0.193-3.929-1.688-8.21,0.501-11.983 M74.537-21.865c-0.443,4.219-3.837,6.599-6.46,9.364c-6.933-1.278-13.413-3.855-19.217-7.899
	 M62.089,98.275c-0.762,3.409-0.222,7.722-2.526,10.559c-2.015,1.465-4.32-0.218-6.152-1.06
	C55.32,103.752,58.907,101.258,62.089,98.275z M61.375,72.22c-0.829-0.042-2.613-0.322-3.442-0.343
	c0.231-1.039,0.559-3.293,0.636-4.364c0.906,0.416,2.748,1.257,3.693,1.507C62.07,69.872,61.559,71.368,61.375,72.22z
	 M45.36,105.498c4.146-2.712,7.415-8.377,12.728-8.075C55.986,102.297,51.174,109.562,45.36,105.498z M59.303,116.743
	c-0.579,1.102-1.716,3.16-2.295,4.272c-2.893,0.156-5.622,0.342-8.514,0.509c0.28-1.195,1.157-3.689,1.465-5.051
	c0.762-0.354,2.093-1.081,2.835-1.423l1.909,0.488c0.309-0.645,0.81-2.152,1.003-2.993c3.731,1.309,6.576,5.144,10.79,4.25
	l-0.53,2.391C63.786,118.447,61.453,117.658,59.303,116.743z M60.682,125.577c-1.032,5.352-5.544,5.268-9.671,4.915
	c-2.121-3.991-5.39-1.392-8.659-1.704c0.222-1.019,0.482-2.952,0.511-3.856c2.024,0.718,3.895,1.382,5.718,2.225
	C50.953,121.794,56.757,125.12,60.682,125.577z M64.095,91.572c0.328-4.448,1.88-8.377,5.583-10.674
	C69.629,85.585,68.231,89.565,64.095,91.572z M68.887,25.152c0.415-1.871,0.675-3.804,1.1-5.685c2.054,0.54,3.191,2.266,4.107,4.136
	c-0.463,0.603-1.533,1.6-1.996,2.192C71.297,25.599,69.678,25.349,68.887,25.152z M68.713,16.962
	c-1.167,2.952-4.995-0.208-3.471-2.536C66.554,11.517,69.832,14.905,68.713,16.962z M66.081,9.947
	c-1.601-1.86-1.321-3.066,0.829-3.762C68.549,7.879,68.453,9.126,66.081,9.947z M41.946,45.823
	c4.156,0.904,8.235,1.413,12.362,2.484c-3.288,4.219-8.466,5.581-13.162,4.001C41.33,50.729,41.744,47.393,41.946,45.823z
	 M47.848,57.681c1.784,0.271,3.52,0.728,5.313,1.008c-0.231,1.018-0.858,3.034-1.09,4.063c-1.379-0.55-2.921-1.133-4.32-1.662
	C47.79,60.196,47.819,58.564,47.848,57.681z M59.129,78.519c-1.225,0.945-2.275,2.66-3.818,2.807
	c-5.554-0.718-10.905-2.297-15.823-5.021c1.215-0.218,3.703-0.852,4.966-1.247C49.265,76.866,54.289,76.887,59.129,78.519z
	 M52.129,85.751c-0.222,1.019-0.482,2.941-0.675,3.793c-2.131-0.197-4.426-0.426-6.604-0.457c-3.192-2.276-8.225-4.479-7.752-9.604
	C42.178,81.533,47.019,83.86,52.129,85.751z M44.771,111.141c-2.381,4.625-7.492,9.458-12.669,7.919
	C35.708,115.662,39.025,108.377,44.771,111.141z M35.775,130.336c3.857,0.811,7.685,1.642,11.388,2.421
	c5.265,1.196,9.372,5.321,13.673,8.615c-0.396,4.043,2.044,7.411,2.188,11.225c-3.134-0.977-6.19-2.317-9.401-2.972
	c1.851,3.731,6.441,3.492,9.681,4.688l-0.569,2.567c-4.098,1.091-8.697,2.089-12.979,0.977c-3.298-2.495-6.836-4.677-10.173-7.005
	c-5.563-3.606-12.207-3.169-18.358-4.219c0.318-4.448,3.596-7.025,6.065-9.821C30.347,135.076,33.104,132.53,35.775,130.336z
	 M48.802,159.945c-0.617,2.733-1.196,5.311-1.958,7.993c-2.275-1.123-4.455-2.599-6.682-3.898c0.945,0.25,2.613,1.04,3.558,1.278
	C44.907,163.094,46.15,160.538,48.802,159.945z M23.443,151.018c6.711-1.528,14.56,0.156,19.429,5.394
	c-0.791,1.257-2.227,3.949-3.008,5.186c-1.996-1.59-3.818-3.16-5.814-4.771c0.077,0.395-0.067,1.081-0.154,1.424
	c1.996,1.6,2.883,3.627,2.43,6.412c-5.082-2.037-10.606-0.592-15.794,0.062C21.062,160.164,22.238,155.581,23.443,151.018z
	 M29.836,165.152c2.902,0.572,5.872,1.518,7.367,4.625c-5.216,2.993-11.339,2.66-16.961,2.286
	C20.348,166.295,26.085,166.898,29.836,165.152z M68.289,147.828c-1.147-0.125-3.567-0.571-4.879-0.717l0.405-4.063
	c2.507,0.842,5.178,1.704,7.666,2.536c0.83,0.759,2.507,2.275,3.346,3.034C72.831,151.538,69.195,152.036,68.289,147.828z
	 M77.382,155.248c1.755,2.64,3.124,5.519,4.455,8.584c-3.278,1.143-5.805-1.871-8.234-3.762c-0.318-0.8-0.839-2.214-1.003-2.983
	C73.968,156.193,75.511,154.593,77.382,155.248z M64.239,184.026c6.316-3.585,11.407-9.863,18.61-11.246
	c-2.584,8.553-7.28,16.015-9.71,24.61c-3.683-1.497-6.451-4.209-8.91-7.379C64.172,188.006,64.268,186.041,64.239,184.026z
	 M83.128,143.732c-1.996,1.466-4.667-1.579-6.518,0.655c-2.218-0.582-4.628-1.018-6.855-1.6c-4.127-2.515-8.746-4.448-12.612-7.441
	c3.558-2.328,5.622-6.318,7.492-10.185c2.439,0.28,4.86,0.727,7.492,1.04c5.853-0.645,11.32,1.87,16.758,3.824
	c2.112,1.819,3.394,4.334,3.905,7.338C89.762,139.648,86.571,141.914,83.128,143.732z M66.872,123.404
	c0.058-2.525,1.206-3.138,3.317-2.037C70.131,123.872,68.983,124.496,66.872,123.404z M79.243,119.923
	c1.928,0.322,3.847,0.821,5.708,1.486C83.534,123.935,77.951,123.395,79.243,119.923z M75.887,14.114
	c-0.135,0.073-0.27,0.125-0.396,0.198l-0.009,0.073c-0.02-0.011-0.039-0.031-0.077-0.042c-1.206,0.624-2.479,1.112-3.625,1.611
	c-0.28-0.977-0.897-2.764-1.167-3.741c1.206,0.488,3.548,1.622,4.792,2.13c0.029-0.021,0.058-0.01,0.086-0.031l-0.299-3.086
	c3.79-0.467,9.353-2.807,12.043,1.683c-3.163,0.624-6.451,1.04-8.601,3.919C77.401,19.415,72.107,18.937,75.887,14.114z
	 M73.621,2.496c-0.713,0.915-2.16,2.889-2.854,3.783c-1.002-1.527-2.015-3.045-3.211-4.448c1.051-2.453,1.08-4.792-0.337-6.786
	c1.032-0.811,1.852-1.518,2.719-2.359c2.7,0.686,5.399,1.392,8.051,2.286c-1.996,1.445-4.137,2.702-6.422,3.918
	c2.613,0.322,4.667,4.656,7.511,3.222c3.298-1.31,6.663-2.796,9.989-4.105c4.311,0.957,8.582,2.058,12.834,3.346
	c-3.809,3.533-9.43,3.876-14.328,4.054C83.119,8.762,76.591,7.255,73.621,2.496z M91.315,8.191c1.967-0.582,4.069-0.946,6.161-1.299
	c3.124-0.457,6.162-1.278,9.016-2.723c0.434,1.019,1.07,1.902,1.514,2.931c-2.941,4.115-6.952,7.057-11.33,9.364
	c-0.25-1.154-0.896-3.492-1.109-4.812c-3.886-2.11-2.439,5.695-3.616,7.909C90.341,16.266,88.441,11.236,91.315,8.191z
	 M97.708,34.443c-1.466,1.975-3.114,4.095-4.445,6.267c-0.347,0.083-0.83-0.031-0.974-0.083c-0.318-2.421-0.559-5.009-0.829-7.608
	C93.523,33.549,95.625,33.903,97.708,34.443z M93.928,29.485c0.598-0.385,1.543-0.862,2.131-1.257
	c2.748-2.546,5.622-4.864,8.929-6.184c-1.812,4.407-4.561,8.419-6.971,12.481C96.975,33.186,95.018,30.67,93.928,29.485z
	 M125.323-10.297 M153.035-13.395c-0.318-0.811-0.82-2.38-1.09-3.347 M44.357-19.755c7.029,2.369,12.921,7.514,19.94,9.883
	L58.203-5.85c-1.542-0.583-3.133-0.988-4.888-1.445C48.388-4.789,42.496-9.217,37.27-9.84
	C38.042-13.987,39.488-19.765,44.357-19.755z M39.498,62.732c3.963,0.301,7.877,1.507,11.773,2.889
	c-0.607,2.733-1.07,5.509-1.514,8.283c-5.352-1.58-10.712-2.422-16.151-3.648c0.203-1.58,0.415-3.326,0.617-4.916
	C36.065,64.561,37.81,63.563,39.498,62.732z M34.011,85.014c-0.994-0.083-2.777-0.363-3.722-0.613l1.099-4.946
	C33.114,80.794,33.828,82.79,34.011,85.014z M33.172,90.21c0.588,3.419,3.375,5.227,5.766,7.295c-0.154,0.676-0.27,1.913-0.26,2.65
	c-1.581,0.301-2.999,0.655-4.542,0.79c-1.591-1.112-3.182-2.266-5.062-2.92c-0.01-2.172-0.029-4.355,0.154-6.662
	C30.53,90.803,31.755,90.584,33.172,90.21z M32.671,128.445c-0.337,0.81-0.955,2.827-1.302,3.637
	c-3.944,2.588-6.518,8.802-11.628,7.649c0.395-4.771,2.584-8.553,6.499-10.985c-1.08-0.457-3.22-1.382-4.445-1.87
	C25.353,128.165,28.968,128.559,32.671,128.445z M23.192,108.605c-0.26,3.377-1.176,6.745-2.391,9.884
	C18.805,115.434,19.847,110.081,23.192,108.605z M20.743,98.566c0.666,0,2.006-0.021,2.69-0.021c0.723,1.985,0.549,5.736-1.9,6.193
	C19.895,103.056,19.673,100.998,20.743,98.566z M24.677,90.719c-1.263,0.396-2.815,0.541-4.194,0
	c0.405-2.619,0.666-5.259,2.005-7.441C23.944,84.92,28.216,88.392,24.677,90.719z M19.528,28.238
	c0.511-3.824,0.743-9.395,5.255-10.029c0.116,4.012-0.125,8.107-2.275,11.703C21.746,29.527,20.28,28.612,19.528,28.238z
	 M22.498,177.717c-0.578-7.223,7.685-3.616,11.522-4.24C34.869,179.473,22.758,187.019,22.498,177.717z M29.383,227.986
	c2.623,1.767,5.245,3.534,7.714,5.27c-2.362,0.821-5.14,1.185-7.83,1.227C29.296,232.85,29.344,229.608,29.383,227.986z
	 M29.595,241.975c0.473-5.861,7.02-4.333,10.665-4.115c-0.309,0.654-0.704,1.632-0.974,2.099c-3.471-2.516-3.336,2.941-4.753,4.739
	c3.105-2.629,8.582-5.363,12.284-2.411c1.899,3.565-0.926,7.898,1.812,11.515c1.668-2.287,3.355-4.573,4.436-7.191
	c2.179,0.758,4.011,2.328,5.458,4.146c-1.002,4.448-2.141,8.844-3.307,13.261c-1.427-0.374-2.893-0.582-4.31-0.957
	c-0.299-0.966-1.186-3.013-1.466-3.99c-6.287-0.384-12.4-1.59-18.378-3.336c-3.51-1.632-0.723-6.516-0.231-9.468
	c1.167-1.507,2.353-2.993,3.365-4.562L29.595,241.975z M64.21,224.558c-7.01-0.915-13.644-3.555-20.567-4.812
	c0.473-2.952,1.128-5.852,1.629-8.792c2.488-0.624,4.937-1.081,7.473-1.133c-0.578,1.839-1.716,5.332-2.285,7.182
	c2.883-0.146,3.655-3.565,5.573-5.426c2.97,0.24,5.679,1.652,8.495,2.567c0.241,1.164,0.771,3.274,1.022,4.438L64.21,224.558z
	 M63.776,208.521c-2.15-2.359-4.551-4.438-7.174-6.194c-1.002-2.255-2.054-4.334-3.259-6.454c3.201-1.538,5.583-6.163,9.276-4.646
	c2.96,0.208,3.548,3.617,4.503,6.048c-0.309,1.362-0.791,4.303-1.09,5.685c1.553-1.756,2.392-5.529,5.747-3.928
	C71.172,203.21,68.405,208.822,63.776,208.521z M73.226,249.521c0.887,0.582,2.873,1.455,3.943,1.923
	c-0.935,7.161-3.018,14.227-5.226,21.066c-1.234-0.488-3.693-1.486-4.956-1.819C68.752,263.551,70.025,255.548,73.226,249.521z
	 M73.573,247.971c-0.135-2.379,0.839-4.479,2.526-6.027l5.872,1.527c-0.588,1.829-1.581,5.561-2.005,7.431
	C77.507,250.633,75.367,249.708,73.573,247.971z M74.817,238.702c0.791-4.313,1.707-8.418,2.623-12.523
	c2.787,0.364,5.516,0.894,8.177,1.767c0.029,4.355-0.453,8.751-1.562,12.981C80.833,240.271,77.815,239.492,74.817,238.702z
	 M81.798,220.982c0.569-7.078,7.203-10.435,13.007-10.892c-0.935,4.988-2.208,9.894-5.11,13.854
	C87.034,223.071,84.343,222.364,81.798,220.982z M93.909,201.35c-1.476-2.38-2.729-5.061-4.841-6.88
	c1.321-3.637,1.254-13.053,6.856-8.875c1.542,4.365,2.883,8.886,4.58,13.292C98.72,200.062,96.165,204.821,93.909,201.35z
	 M94.555,177.457c2.921-2.504,3.24-6.942,4.638-10.206c4.156,0.177,8.157,0.322,12.14-0.281l0.955-4.271
	c-0.791-0.198-2.362-0.613-3.201-0.655c-2.083,2.536-4.619,3.326-7.55,1.486c1.311-5.103,4.542-10.569,10.192-8.034l0.54-1.664
	c0.791,0.198,2.343,0.79,3.125,0.998c1.841,2.297,3.673,4.573,5.091,7.286c-2.873,3.066-5.052,6.828-7.251,10.6
	c-0.733,1.798-1.591,3.388-2.651,5.093c-2.845,5.228-5.246,10.756-7.772,16.077C100.186,188.307,97.766,182.633,94.555,177.457z
	 M104.216,126.044c-3.761,0.291-7.338-0.987-10.713-2.411c1.61-2.661,1.832-5.134-1.225-6.485c1.206-1.663,2.662-2.91,4.426-4.084
	c2.883-2.318,6.249-1.631,9.382-0.624c2.188-3.793,3.943-7.857,4.126-12.492c1.967,1.756,8.254,2.857,5.843,6.931
	c-1.321,2.9-2.921,5.561-4.243,8.48C109.461,119.102,108.034,123.966,104.216,126.044z M148.455,12.358
	c3.481-4.334,9.642,1.071,6.923,5.799C152.147,18.396,150.721,14.219,148.455,12.358z M33.461-10.827 M27.425,16.911
	c2.613,0.322,5.39,0.665,8.157,1.029c-1.128,1.34-2.111,2.712-3.297,4.219c-0.039,3.959-1.34,8.314-6.084,6.921
	c0.193-2.317,0.212-4.666-0.125-6.921C26.384,20.797,27.126,18.271,27.425,16.911z M28.669,80.358
	c-1.466,0.53-4.503,1.372-5.95,1.902c-0.655-1.621-1.186-3.024-1.678-4.604C23.771,78.186,26.606,78.373,28.669,80.358z
	 M17.33,231.53c0.8,0.936,2.275,2.609,3.066,3.523c0.637-0.551,2.016-1.476,2.652-2.026c2.748,3.429,2.912,7.992,2.266,12.347
	c-1.437-1.091-4.291-3.285-5.727-4.386C15.932,239.326,16.047,235.002,17.33,231.53z M18.362,241.217
	c1.147,0.842,3.413,2.702,4.734,3.585c1.523,2.941,2.815,6.163,1.851,9.708c-1.977-0.146-3.963-0.302-6.094-0.5
	c0.453-1.33,1.08-4.053,1.388-5.424C18.159,246.59,17.388,244.043,18.362,241.217z M18.208,258.375
	c1.032-0.104,3.124-0.457,4.204-0.728l2.208,0.571c-0.328,3.731-0.82,7.379-1.446,11.027c-3.414,9.978-2.266,20.578-4.687,30.627
	c-1.735-0.447-3.452-1.081-5.312-1.746c0.501-7.473,1.128-14.737,2.083-22.074c0.02-3.077,0.396-6.226,0.733-9.219
	C16,263.769,16.481,260.817,18.208,258.375z M18.815,315.681c3.124,0.27,5.592,2.016,7.984,4.074
	c-1.755,4.781-4.088,9.26-5.988,14.009c-2.266,3.389-2.874,7.565-3.915,11.463c-1.186-0.665-3.567-2.016-4.792-2.515
	C12.383,333.192,16.5,324.504,18.815,315.681z M31.388,318.778c1.312-2.91,3.944-4.927,6.865-5.997
	c-0.762,2.702-1.369,5.446-2.179,8.293C34.396,320.306,32.893,319.536,31.388,318.778z M35.467,324.535
	c-1.215,0.966-2.034,3.086-3.896,2.422c-0.145-1.653-0.626-4.677-0.781-6.34C31.909,321.625,34.31,323.693,35.467,324.535z
	 M28.081,317.021c-1.196-2.13-2.478-3.917-3.722-5.861c4.156-2.889,8.746-5.322,13.557-6.6
	C37.443,310.401,32.661,314.6,28.081,317.021z M21.341,387.62c-0.048-2.724,3.355-6.714-0.347-8.221
	c1.774-2.63,2.883-6.839,6.653-6.423c-0.607,3.471-1.379,6.891-4.319,8.834C26.885,383.098,25.13,390.249,21.341,387.62z
	 M23.751,346.1c-0.819-0.042-2.458-0.281-3.24-0.488c-0.309-3.866-0.549-8.096,2.17-11.203c1.089-2.598,1.841-5.28,2.593-7.815
	c3.934-0.406,7.039,5.27,3.982,8.449C26.818,338.399,25.439,342.358,23.751,346.1z M22.826,426c1.253-2.568,2.497-5.145,3.587-7.753
	c3.789-0.457,7.877-0.676,11.686,0.312c-1.871,10.569-11.194,17.003-18.957,22.407C20.097,435.955,21.399,430.884,22.826,426z
	 M24.523,395.144c1.765-4.054,0.501-13.428,6.499-11.682c-1.128,4.229-2.392,8.418-3.635,12.419L24.523,395.144z M28.1,379.98
	c0.82-4.489,1.784-8.76,3.095-13.125c1.427-0.364,4.079-0.936,5.333-1.341c-1.061,5.529-2.604,10.901-4.31,16.254
	C31.157,381.321,29.161,380.437,28.1,379.98z M35.804,353.043c0.724-2.537,2.382-4.636,3.549-6.881
	c1.716,2.816,2.96,6.225,2.362,9.686c-0.733,0.333-2.083,1.081-2.874,1.59C37.849,355.9,36.807,354.56,35.804,353.043z
	 M21.457,304.623c0.877-3.929,2.353-7.535,4.001-11.089c-2.951-11.619,2.777-22.968,3.837-34.452
	c8.64,0.437,16.845,3.471,24.125,8.439c-0.964,4.282-2.025,8.335-3.616,12.44c-1.138,2.067-2.15,4.324-3.009,6.651
	c-1.234,2.557-2.179,5.228-3.104,7.888C36.132,297.576,29.229,302.118,21.457,304.623z M46.488,342.785
	c-0.192,0.852-0.781,2.702-0.974,3.544c-0.781-0.208-2.411-0.426-3.211-0.645C40.876,343.128,44.887,340.187,46.488,342.785z
	 M45.37,332.018c1.495-2.152,2.141-5.799,5.062-5.405c-0.492,2.245-0.993,4.458-1.639,6.641
	C47.992,333.037,46.324,332.268,45.37,332.018z M49.062,323.007c2.372-6.069,2.295-15.496,9.286-17.48
	c-1.34,5.976-3.51,11.931-6.239,17.376C51.28,322.862,49.93,322.873,49.062,323.007z M143.45,167.542
	c-2.526,1.528-5.409,2.391-8.138,3.326c-6.682,5.134-12.776,11.328-20.191,15.184c-0.405,0.26-1.369,0.904-1.765,1.153
	c0.309-0.624,0.656-2.162,1.012-2.972c4.079-7.088,7.367-14.914,12.882-20.89C132.564,165.08,138.002,166.316,143.45,167.542z
	 M122.498,156.848c-1.948-1.777-1.909-4.282-1.369-6.672c0.839-0.696,2.488-2.079,3.308-2.765c-1.736,0.271-2.96,1.227-3.732,3.201
	c-1.263-0.343-3.77-1.185-5.042-1.497c-1.63-1.705-3.799-2.442-5.911-3.523c0.54-5.487,6.759-0.966,9.228-4.489
	c4.435-0.291,6.123,4.854,10.095,5.882c-0.222-1.32-0.482-3.918-0.685-5.249c0.916,0.416,2.623,1.05,3.577,1.299
	C129.633,148.223,127.232,153.741,122.498,156.848z M140.779,129.952c-2.015,2.91-3.837,5.872-5.554,9.052
	c-4.802-1.081-5.082-7.295-8.389-10.507c-3.394,3.097-4.889,9.759-10.626,8.46c2.42-3.367,0.733-7.785,3.481-11.058
	c1.822-5.124,7.588-5.436,11.638-7.805c3.114-1.923,4.734,2.141,6.306,4.157c1.061,0.457,3.365,1.434,4.599,1.922
	C141.888,125.712,141.242,128.622,140.779,129.952z M162.898,105.311c-4.465,7.171-11.339,11.692-17.153,17.429l-5.554-1.445
	c-1.003-0.811-2.951-2.578-3.905-3.554c1.688-2.276,4.532-2.982,6.808-4.188c0.106-1.248,0.289-3.544,0.395-4.792
	c5.043-3.751,10.607-6.818,15.361-10.84c3.258-3.305,8.291-2.556,11.792-5.446c1.803-2.774,3.278-5.643,4.802-8.709
	c0.154,0.052,0.482,0.135,0.675,0.011C171.77,91.146,168.347,98.951,162.898,105.311z M192.578,73.935
	c-4.012,4.397-8.679,8.055-13.451,11.339c2.323-6.62,8.282-13.761,15.292-12.846C193.995,72.865,193.002,73.52,192.578,73.935z
	 M212.055,53.68c3.587-1.777,7.318-4.24,11.484-3.357c-6.519,5.924-13.085,11.983-20.77,16.317
	c-0.993-0.084-3.162-0.094-4.156-0.167C200.696,60.144,206.568,56.424,212.055,53.68z M202.191-12.553
	c2.121,1.809,3.981,3.929,6.142,5.571c0.617-2.006,1.079-4.063,1.533-6.11c-1.389-1.986-1.571-4.22-0.569-6.486
	c1.678,0.8,5.824,5.498,6.547,0.811c0.357-3.898,4.291-1.965,6.471-1.216c-1.64,1.362-3.298,2.754-4.947,4.137
	c-0.742,2.515-1.494,5.217-2.275,7.908c-1.282,2.016-2.17,4.5-4.31,5.758c-0.964,3.544-0.733,11.567-6.036,8.2
	c-1.783-2.474-4.493-4.615-4.561-8.065c2.564,1.206,5.226,2.089,8.09,2.827c4.646-3.492-3.027-3.679-5.14-4.053
	c-3.278-0.312-6.026-3.024-9.054-4.51c-0.975-2.443-2.652-4.667-2.7-7.41C195.018-14.247,198.546-13.509,202.191-12.553z
	 M195.934-3.324c1.678,2.234,4.348,4.562,3.152,7.68c-1.186,0.062-3.713,0.135-5.023-0.042c0.762,1.112,1.514,2.213,2.314,3.139
	c4.744-0.946,6.547,3.7,8.793,7.171c-2.217,13.718-5.477,27.52-8.504,41.03c-0.203,3.201-2.055,5.446-5.217,5.342
	c0.473,1.559,1.013,2.972,1.533,4.375c-6.181,3.638-11.127,9.218-17.636,12.055c-5.062,4.646-9.565,10.529-15.794,13.615
	c0.482-2.941,2.285-5.009,3.963-7.275c-5.457-0.342-12.033,2.827-15.996-2.722c-1.196-6.642,2.073-13.043,4.117-19.196
	c3.355-5.976,5.168-13.302,10.355-17.74c5.603-3.253,11.552-5.862,17.713-7.878c-2.902-0.582-4.57-2.816-5.66-5.456
	c-2.97-0.946-6.189-1.622-8.475-4.199c1.908-4.739,3.49-9.582,5.196-14.196c2.16-2.151,4.687-3.679,6.923-5.446
	c3.963,0.312,7.811,1.134,11.272,2.931l0.993-4.448c-3.442-0.343-6.691-0.821-10.115-1.351c2.199-3.045,4.513-5.872,6.422-9.187
	c2.035-3.087,0.55-6.911,0.434-10.195C189.666-11.295,192.587-7.097,195.934-3.324z M7.919,74.787
	c2.507,0.832,1.919,5.748-1.022,5.352C4.4,79.298,5.075,74.05,7.919,74.787z M8.392,92.996l-3.018-1.497
	c0.569-2.566,0.983-5.175,1.398-7.784c1.466-0.53,2.758-1.091,4.069-1.663L8.392,92.996z M13.492,533.023
	c-1.707,0.092-3.365,0.021-4.917,0.178l1.032-4.626c1.716,0.634,3.259,1.207,4.812,1.787
	C14.1,531.018,13.637,532.337,13.492,533.023z M45.157,641.295c-2.796,1.257-4.069-2.141-5.698-3.846
	c-1.996,2.931-1.996,6.724-2.575,10.008c-2.353,1.56-5.004,2.858-7.781,3.234c0.723-1.621,1.572-3.213,2.439-4.803
	c5.92-6.964,10.838-14.737,16.354-22.156c4.377,0.789,8.042,3.906,12.246,5.361C56.265,634.416,50.953,638.635,45.157,641.295z
	 M81.441,610.388c-2.478,2.046-5.062,5.383-8.639,4.084c-0.791,5.039-5.12,7.878-8.215,11.245c-3.143,3.522-7.097-0.583-9.883-2.381
	c-0.087-1.111-0.096-3.284-0.029-4.355c-1.099-0.301-3.413-1.246-4.647-1.756c0.598-0.385,1.504-1.423,1.918-1.85
	c2.739-4.718,6.152-9.425,10.761-12.033c4.213-2.35,9.169-1.238,13.634-2.412c5.014-1.424,10.144-2.63,15.052-4.25
	c1.62-0.479,3.355-0.748,5.014-0.666C91.739,601.116,86.667,605.772,81.441,610.388z M100.089,584.841
	c0.752,0.376,2.179,0.748,2.96,0.957c-2.228,3.213-4.734,6.174-8.852,6.567C95.557,589.279,96.927,586.183,100.089,584.841z
	 M94.092,593.593c-8.504,1.226-16.614,5.995-25.523,5.312c6.036-7.483,16.343-5.531,24.231-9.271
	C93.166,590.995,93.725,592.241,94.092,593.593z M84.989,578.741c0.714,0.551,2.112,1.818,2.835,2.37
	c1.504,1.465,4.455,3.323,2.845,5.995c-5.747,4.657-14.068,2.12-19.931,6.568c-5.342,4.416-11.33,7.899-16.758,11.921l-2.545-0.654
	c0.203-9.905,6.007-17.803,11.088-25.535c1.099-1.153,2.237-2.484,3.336-3.659c1.793-3.49,4.136-6.515,6.489-9.509
	C77.169,569.48,82.415,573.004,84.989,578.741z M64.837,560.835c2.179,1.465,4.84,2.338,6.132,4.862
	c-3.693,4.459-10.25,4.564-13.027-1.049l-2.796,2.732c0.039-5.435,0.704-10.683,1.861-15.817
	C59.872,554.485,61.482,558.517,64.837,560.835z M76.909,382.35c1.649,3.865,5.352,7.535,3.336,12.075
	c1.032-0.092,3.24-0.228,4.435-0.291c0.656,3.066,5.419,5.757,6.104,1.226c-2.199-2.919-8.736-3.72-5.458-8.646
	c6.354,2.371,11.725,6.84,16.286,12.003c4.445-1.901,9.035,1.633,13.441,2.215c-0.222-5.821-7.434-4.262-10.905-6.787
	c5.313,1.008,10.472,2.712,15.669,4.23c-0.203,0.156-0.501,0.778-0.743,1.07c4.6,1.205,8.572,3.689,11.339,7.846
	c1.34-0.011,3.674,0.062,5.023,0.042c0.81,3.107,1.109,6.245,0.424,9.321c-2.941,3.41-7.839,5.769-8.157,10.913
	c1.089,0.456,3.076,1.352,3.973,1.766c-10.086,16.547-23.662,30.752-39.283,41.344c-2.024,0.021-4.474-0.27-5.766,1.745
	c-4.33,6.652-9.681,12.513-15.023,18.355c-2.111,1.974-4.107,4.915-7.357,4.416c3.731-13.677,5.207-27.77,9.208-41.198
	c-0.598-1.798-1.253-3.397-2.044-5.061c0.955-3.543,1.601-7.17,1.726-10.766c-1.61,1.215-4.927,1.069-5.38,3.854
	c-0.299,2.828,0.983,5.323,1.032,8.045c0.849,10.528-2.748,20.63-4.339,30.711c-1.312,4.365-0.906,10.081-5.014,12.638
	c0.55,2.847,2.073,7.223-1.186,9.084c-12.95,9.842-25.456,20.713-40.188,27.363c-2.469-0.999-4.937-2.723-2.266-5.653
	c3.461-2.713,10.385-1.457,10.259-7.649c-0.588,0.396-1.851,0.8-2.401,1.008c-4.773,1.84-9.507,4.229-14.666,2.526
	c1.417-11.567,1.003-23.26,2.623-34.963c0.578-7.813,2.449-15.464,4.609-22.874c0.704-0.882,1.928-2.565,2.642-3.472
	c7.907,1.341,15.119,5.188,22.486,8.199c2.671,2.34,6.923,3.609,4.696,8.295c-1.389-0.552-3.886-1.393-5.159-1.724
	c0.685,1.454,1.369,2.888,2.054,4.332c2.14,1.663,3.673-1.402,5.284-2.608c0.983-2.806,3.809-3.524,6.306-4.137l0.569-2.555
	c-4.503,0.633-10.529-0.938-13.143-5.061c-0.463-0.127-1.311-0.158-1.784-0.272c-6.113,1.84-11.474-3.521-17.105-5.351
	c1.852-2.963,5.043-4.49,7.762-6.133c14.212-8.783,29.322-15.538,44.711-21.307c4.464-1.9,9.103,0.562,13.547,1.716
	c-0.087-1.111-0.309-3.149-0.386-4.25c2.169,0.736,4.243,1.277,6.268,1.985c-1.899,0.227-3.799,0.457-5.747,0.871
	c3.163,3.16,0.887,7.275,0.261,10.902c1.928-0.393,4.05-0.924,5.872-1.547c-0.993-1.528-2.122-3.264-3.278-4.823
	c2.401-1.734,5.216-2.265,7.916-0.841c0.646,2.328,0.357,5.154,3.278,5.559c0.077-1.068,0.212-3.2,0.29-4.271
	c1.629,0.23,4.831,0.895,6.412,1.299c-1.996-2.326-4.494-3.865-6.991-5.425c-2.768-3.439-7.125-4.208-10.78-5.871
	c-3.278,0.406-6.451,0.302-9.796,0.354c-5.939,0.978-11.387,3.522-16.913,5.727c-14.184,6.443-28.117,13.136-41.22,21.48
	c-4.831,1.27-5.573-4.354-4.426-8.022c3.799-5.705,8.186-11.806,14.897-13.324c0.762-3.407,1.948-8.719,6.2-7.421
	c2.237-3.23,5.265-5.506,7.887-8.26c2.141,0.196,4.416,0.592,6.538,0.79c-4.175-3.805-9.98-1.883-14.724-0.938
	c0.241-4.095-2.69-5.217-5.786-5.663c-0.916,4.105-3.442,5.603-7.28,4.792c6.759-15.954,10.905-32.966,17.067-49.272
	c5.939,0.446,10.221,5.362,15.427,7.607C65.898,376.062,71.037,380.104,76.909,382.35z M100.041,354.716l-0.896,0.301
	c-0.309,0.644-0.588,1.85-0.897,2.494c1.813-0.613,3.973-1.32,4.638-3.492c0.318,0.072,0.675-0.031,1.031-0.114
	c-2.208,6.131,0.222,12.544-1.832,18.696c-3.22-0.644-4.773-2.67-4.561-5.871c-1.389,0.176-2.604,0.385-3.876,0.8
	c-1.736,0.26-3.278,0.405-4.85,0.728c-9.71-0.905-19.4-4.854-29.12-3.409c0-0.718,0.289-2.079,0.453-2.786
	c10.693-3.544,21.792-1.382,32.301,1.881c-0.511-0.675-1.388-1.984-1.918-2.65c0.877-3.928,5.11-5.56,5.833-9.52
	C97.496,352.605,104.197,354.154,100.041,354.716z M92.26,336.227c1.331,3.066,4.802,1.788,7.184,2.412
	c0.173,6.007-3.616,10.112-6.885,14.311c-2.468,2.796-4.976,7.202-9.15,5.591c2.141-5.061,0.762-10.86,1.099-16.192
	c-0.636-0.156-2.005-0.686-2.652-0.852c-2.304,4.999,0.994,10.559-1.899,15.225c-2.564,0.25-5.188,0.634-7.743,0.884
	c-7.56,0.748-15.187,2.577-22.572-0.437c1.042-3.887,1.61-7.898,3.548-11.37c0.704-2.37,1.398-4.718,2.092-7.066
	c11.127-2.526,20.577-10.196,31.231-14.311C88.277,328.494,90.09,332.402,92.26,336.227z M117.464,299.364
	c-3.703,3.023-7.54,6.724-12.38,6.547c-1.466,3.606-5.438,3.294-8.022,5.154c-2.767,1.819-5.641,3.419-8.919,3.825
	c-0.193-3.658-0.367-7.316-0.916-10.912l1.649-7.348c1.388,1.279,1.581,4.947,3.722,4.407l1.022-4.614
	c-0.598-1.788-1.167-3.742-1.601-5.653c1.842,0.832,3.616,1.85,5.409,2.837c-0.723,3.263-1.552,6.288-3.519,9.031
	c3.722,0.613,6.74,2.848,9.604,5.041c0.299-2.817,0.713-5.425,1.012-8.231c-1.822-0.125-4.589,0.966-5.747-1.331
	c-0.81-3.086-0.396-6.423,0.154-9.717c1.147,0.114,3.645,0.218,4.792,0.343c0.154-1.423,0.608-4.188,0.907-5.539
	c-2.218,0.125-4.185,0.706-6.239,1.621c0.231-1.029,0.53-3.107,0.771-4.146c-2.468-0.281-4.879-0.717-7.425-1.393
	c1.042,0.634,3.144,1.725,4.185,2.359c-0.444,1.154-1.321,3.637-1.919,4.749c-2.121,0.541-4.223-0.561-6.258-1.268
	c0.646-3.627,1.302-7.255,2.411-10.767c5.332-2.785,11.291-5.394,17.385-5.612c6.914,5.789,13.538,12.212,21.204,16.909
	c1.041,0.645,3.037,2.235,3.905,2.827C128.216,293.294,122.103,295.134,117.464,299.364z M133.538,284.543
	c-8.63-4.947-16.758-11.401-22.987-19.538c5.168-3.544,10.51-7.223,16.758-7.39c5.265-0.26,10.578,0.021,15.91,0.145
	c-2.594,5.654-4.966,11.734-6.817,17.762C134.907,278.392,134.387,281.52,133.538,284.543z M180.814,314.756
	c-0.463,0.592-1.438,1.964-1.91,2.566c-10.307-1.953-18.754-9.935-27.238-16.295c-0.01-0.738-0.213-2.037-0.213-2.775
	c7.357-1.351,15.669,0.447,21.3,6.069c0.183-1.58,0.366-3.149,0.356-4.604c3.375,1.424,7.589-0.176,10.434,2.89
	c2.661,1.6,1.379,5.072,1.205,7.368c3.693,2.245,4.214,6.714,5.188,10.58C186.156,320.128,183.494,317.073,180.814,314.756z
	 M195.152,309.258c7.53,2.318,12.998,8.625,19.535,13.209c0.482,2.286,1.166,4.468,2.179,6.724c0.347-1.549,1.225-4.739,1.765-6.422
	c4.185,2.349,8.321,4.884,13.064,5.373c10.067,2.276,17.887,9.374,25.418,16.213c-0.184,1.579-0.328,2.992-0.512,4.562
	c-4.609-1.195-9.236-2.224-13.74-3.928c-1.186-1.403-2.776-2.547-4.492-3.17c-1.428-1.081-2.902-2.005-4.562-2.806
	c-0.019-0.728,0.02-2.338,0.01-3.076c-9.912-2.214-19.815-4.406-29.265-7.961c-2.102-1.829-4.339-3.118-7.067-3.648l2.449-4.978
	c0.636,0.177,2.141,0.936,2.776,1.102c-1.195-0.675-2.516-3.742-4.203-2.193c-2.449,2.629-5.564,2.36-8.746,1.539
	C191.555,316.262,193.358,312.76,195.152,309.258z M191.42,289.096c-0.385,0.987-1.263,2.755-1.668,3.741
	c-12.023,1.206-24.221-0.509-35.994-3.377c0.376-0.997,1.041-3.19,1.428-4.167c2.246-3.211,6.142-0.405,9.131-1.777
	c3.375,0.696,6.701,1.56,10.105,2.068c0.355-0.821,1.176-2.224,1.523-3.034c-3.646-0.946-7.676-0.915-10.318-4.126
	c-3.162,1.34-6.566,0.811-9.777-0.572c-2.43,4.812-5.582,9.957-11.078,11.245c-2.652-0.166-4.918-1.288-7.454-1.943
	c0.713-10.652,4.619-21.409,10.568-29.993c0.993,0.083,3.095,0.447,4.04,0.707c2.334-0.676,4.657-1.341,7.049-2.172
	c3.73-1.008,5.939,3.357,9.738,3.637c0.443-1.153,1.62-3.388,2.063-4.718c3.771,1.154,7.655,1.081,11.532,0.998
	c5.12,2.598,10.52,4.011,15.756,6.09c0.356,0.644,1.089,1.912,1.484,2.369c-1.282,8.73-1.678,17.293-3.924,25.773
	C194.68,289.595,192.578,289.221,191.42,289.096z M197.832,287.516c0.83-5.945,3.818-11.858,2.536-18.156
	c0.56-0.218,1.476-0.519,1.861-0.779l7,3.252c-1.562-2.037-4.851-6.121-6.45-7.991c7.039-2.151,13.721,1.746,20.865,1.257
	c5.631,0.375,11.445-0.104,16.894,1.86c2.845,1.465,2.005,4.49,1.108,6.984c-2.912,1.04-5.68,2.141-8.484,3.398
	c-5.757-2.047-10.125,5.508-15.891,2.016C211.813,284.264,204.707,286.768,197.832,287.516z M230.867,292.12
	c-1.572,0.302-3.037,0.842-4.696,1.486c-7.819,1.227-15.861,1.123-23.122-2.39c8.852-5.104,18.552-10.186,28.85-8.948
	c2.314-2.848,6.287-5.612,8.61-1.029c2.372,3.7,4.522,0.093,6.614-0.987l-3.712-2.234c1.861-0.77,3.731-0.842,5.747-0.146
	c-0.975,2.11-1.783,4.262-2.604,6.393c3.722,0.602,7.116,3.481,8.022,7.69c-3.403-0.53-6.788-1.943-10.269-2.131
	C239.795,290.468,235.582,292.806,230.867,292.12z M255.387,305.547c-3.645-0.946-6.479-3.305-8.398-6.703
	c1.736-4.802,6.625-4.074,9.768-1.621c4.436,1.871,5.555,7.399,7.444,11.712C261.105,308.489,257.315,308.946,255.387,305.547z
	 M268.49,306.982c-2.149-2.381-3.52-5.291-4.889-8.169c-0.192-0.592-0.8-1.652-1.002-2.255c4.734,2.879,9.797-1.06,14.732,0.956
	C274.71,300.996,272.039,304.633,268.49,306.982z M286.011,310.442c-3.935,2.588-8.553-0.062-12.583-0.738
	c0.983-5.186,5.082-8.47,7.983-12.409c3.529,1.465,7.839,1.673,10.636,4.937C290.205,305.184,289.356,308.957,286.011,310.442z
	 M298.574,315.868c-3.259-0.478-6.518-0.956-9.873-1.652c0.491-0.779,1.138-2.058,1.484-2.89c3.741-0.998,5.217-4.604,4.079-8.522
	c6.017-1.331,11.772,1.434,17.327,3.606c-1.013,2.994-2.479,5.862-4.088,8.533C304.533,315.431,301.641,315.586,298.574,315.868z
	 M390.688,807.993c-0.154-0.758-0.164-2.223-0.338-2.97c3.211,0.644,8.745-1.55,9.102,3.625l0.569-2.556
	c-1.312-0.895-3.973-2.495-5.332-3.211c1.089-2.61,2.141-5.041,3.394-7.619c-1.195,0.054-3.413,0.21-4.436,0.292
	c-0.473,1.33-1.437,4.146-1.898,5.478c-1.746-1.186-3.395-2.142-4.967-3.273c-1.697,0.092-3.287,0.393-4.83,0.559l1.773,4.074
	c-3.982-3.211-8.581-5.143-13.586-6.069c0.02-7.596-0.27-15.276,0.936-22.903c2.777-0.375,5.621-0.354,8.543,0.04
	c0.676-0.737,2.121-1.976,2.961-2.659c8.156,1.766,16.083,4.541,23.257,9.289l0.829-3.75c-2.932-1.133-1.34-5.238,1.195-5.301
	l1.186-5.312c-2.584,2.59-5.178,5.177-8.176,7.286c-7.02-2.368-15.273-5.227-17.954-13.531c1.533-2.308,2.575-4.749,3.5-7.41
	c-3.085,0.282-7.202,3.732-9.604,0.209c-2.632-2.495-3.085-10.195-7.897-6.746c1.602,1.133,3.183,2.276,4.977,3.295
	c1.532,2.193,3.047,4.396,4.725,6.642c-0.425,1.891-0.724,3.971-1.139,5.85c1.398,1.27,2.98,2.402,4.378,3.659
	c-0.347,0.831-0.896,2.505-1.09,3.348c-2.372-1.341-4.57-2.816-6.942-4.147c0.106-1.248,0.193-3.928,0.338-5.354
	c-2.083,1.093-4.127,2.018-6.229,3.089c-2.643-6.111-3.019-12.722-3.385-19.321c-0.637-0.167-1.947-0.343-2.574-0.499l-1.476,4.334
	c-1.533-2.931-2.7-5.955-3.702-8.938c3.451-3.439,11.937-2.317,11.001-8.708c-3.771-2.608-7.53,2.919-11.618,1.674
	c-1.351,3.813-2.546,7.669-3.27,11.629c-2.709-2.142-5.207-4.417-7.732-6.703c-0.83-4.552-1.312-11.37-7.203-10.549
	c-0.732-2.732-2.141-3.992-4.175-3.815c-2.382,4.646-7.001,1.996-10.693,1.207c-0.058,1.069-0.202,3.21-0.28,4.26
	c4.243,0.571,8.312,0.354,12.439,0.708c3.625,3.306,5.602,7.97,7.655,12.305c4.417,13.26,9.536,26.367,14.502,39.397
	c-0.916-0.404-2.776-1.069-3.683-1.497c-5.41-8.083-8.766-17.843-12.053-27.186c-4.783-4.854-9.209-9.801-12.699-15.963
	c-3.963,0.415-7.762-1.299-11.532-2.452c0.53,2.13,1.456,4.707,3.925,4.997c8.629,2.598,16.044,9.968,19.043,19.06
	c1.697,4.43,4.396,8.202,5.516,12.836c-2.199,0.873-4.358,2.308-5.979,4.252c2.42-0.303,4.792-0.406,7.213-0.675
	c1.629,1.691,3.057,3.511,4.492,5.329c-0.057,1.072-0.028,3.234,0.049,4.335c-1.157-0.113-3.172-0.073-4.311-0.197
	c-0.964,3.533-1.648,7.347-1.986,11.058c-2.988,0.687-6.161,1.288-9.15,1.954c-1.629-5.489-0.848-11.983-4.57-16.379
	c-3.259,6.382,2.681,13.54-1.07,19.808c-2.285,1.206-4.782,1.83-7.174,2.838c-1.215-2.849-2.459-5.52-3.52-8.334
	c-0.906-0.407-2.729-1.249-3.809-1.716c-7.732-8.158-16.738-15.206-22.514-25.39c-12.256-3.003-23.306-9.843-33.777-17.098
	c-2.574-1.942-5.862-2.254-8.881-3.032c0.945-5.718,6.143-8.721,9.527-12.534c3.838-4.438,8.32-7.983,13.816-9.271
	c0.184-0.833,0.811-2.847,1.157-3.679c7.348-5.123,15.774-10.549,24.964-9.593c5.545-5.259,10.211-11.827,12.555-19.361
	c8.128-4.033,16.285-8.241,25.089-10.112c9.016-7.971,20.952-9.562,31.569-13.511c4.521,7.515,0.559,16.96-3.183,23.956
	c-1.003,3.741,0.849,7.461,1.909,10.994l0.637-2.91c-1.07-4.987,0.684-9.768,1.918-14.508c4.186-5.236,2.15-12.647,3.375-18.854
	c1.812-0.612,3.789-1.175,5.573-1.62c4.657-6.567,9.344-13.313,15.157-19.028c4.773-1.84,10.27-3.117,11.166-9.405
	c-3.818,2.795-7.704,5.955-12.747,4.458c-0.154-1.486-0.356-4.428-0.521-5.913c-1.456,4.324-2.025,9.042-3.654,13.334
	c-2.334,3.74-5.516,6.702-8.312,10.153c-0.993-0.082-2.932-0.416-3.876-0.666c-0.588,1.829-1.003,3.73-1.582,5.561
	c-7.926,2.452-16.199,4.126-23.971,7.359l-3.49-0.927c-9.777,9.957-24.211,11.444-35.782,18.208
	c-4.608,3.325-8.977,7.068-13.576,10.382c-9.112-0.549-15.456,7.556-23.44,10.935c-4.946,9.374-12.082,17.294-20.113,23.883
	c-3.943-0.302-3.992-5.364-5.68-8.347c1.514-4.499,3.23-9.113,4.609-13.831c2.806-0.53,5.447-1.104,8.254-1.653
	c2.622,0.344,5.641,1.123,8.157-0.406c-0.724-1.268-1.446-2.536-2.17-3.824c-1.195,0.791-2.208,1.602-3.433,2.557
	c-3.385,0.198-6.634,0.447-10.037,0.645c0.53-2.401,1.07-4.78,1.446-7.212c-0.665,0.716-2.16,2.142-2.825,2.868
	c-3.713,1.569-9.209,2.14-9.401,7.515c1.542-0.147,4.388-0.843,5.93-1.009c-0.916,4.116-1.995,8.18-3.075,12.253
	c-0.551,0.208-1.428,0.343-1.977,0.562c2.998,4.583,6.016,9.884,5.188,15.818c-0.752-0.375-2.103-1.082-2.854-1.466
	c-1.591,4.853-6.123,7.086-9.613,9.987c-7.599,6.161-16.161,10.631-25.022,14.311c-0.973-3.17-1.436-6.352-2.092-9.427
	c-0.328,0.655-0.703,2.37-1.021,2.993c0.578,2.692,2.863,5.27,1.427,7.972c-2.487,2.786-6.229,3.803-9.353,5.705l-3.693-3.68
	c0.048,2.007,0.145,3.847,0.202,5.854c-3.635,1.225-7.405,0.789-10.935-0.677c-3.075-8.762-10.596-13.428-17.008-19.258
	c-2.682-9.01-0.743-19.901-7.531-27.093l-0.656,2.898c3.201,3.004,3.183,7.523,3.818,11.474c0.435,4.844,3.047,8.948,3.317,13.719
	c-5.159-1.705-9.314-5.686-12.949-9.686c1.167-1.508,2.556-3.149,3.731-4.646c-2.054,0.188-4.146,0.55-6.248,0.913
	c1.002,2.236,2.054,4.324,3.057,6.568c-1.494,0.708-4.687,2.236-6.22,3.099c3.886,0.635,7.714,0.737,11.522,0.999l-0.81,3.585
	c8.446,1.299,17.982,5.944,21.493,14.994c0.742,4.896-4.379,6.83-6.336,10.301c-7.694,12.648-21.743,17.677-34.828,20.609
	c-5.622,1.079-11.976,1.037-16.613-3.047c-2.199,0.875-4.445,1.922-6.528,3.005c1.234-3.295,1.678-6.798,1.812-10.394
	c2.102-8.677,7.868-15.683,9.556-24.65c2.131-11.017,7.231-21.098,10.587-31.615c1.553-5.373,4.117-10.153,7.405-14.354
	c1.196,1.394,2.555,2.839,3.751,4.242c-0.993-6.787,0.174-13.511,3.896-18.904c3.963,2.493,6.903,6.683,9.257,11.099
	c-0.203,2.473-0.261,4.989-0.164,7.545c1.002-1.539,1.986-2.898,3.172-4.417c-0.896-2.037-1.783-4.073-2.709-5.944
	c-2.584-2.661-5.14-5.497-7.492-8.459c-1.312-4.688-3.316-9.189-3.606-13.959c-0.347-5.164,4.263-7.772,7.405-10.578
	c6.77,1.235,12.901,4.636,19.092,7.689c6.615,4.979,11.657,11.714,17.163,17.836c3.047,3.688,3.066,8.78,3.856,13.497
	c1.369-1.62,2.758-3.273,4.233-4.675c-2.487-5.354-5.409-10.29-8.505-15.246c-1.099-0.292-3.123-0.987-4.232-1.279
	c-3.414-4.332-6.798-8.646-11.368-11.463c-7.811-4.916-15.997-11.027-25.562-8.822c0.578-7.078,4.937-12.286,9.092-17.348
	c-2.102,0.354-6.402,0.863-8.619,1.009c1.407-6.319,4.213-12.106,6.701-17.958c9.141-1.081,18.35-2.495,27.374-0.854
	c1.379-6.151,6.683-3.521,9.507-0.426c-2.632,2.754-5.631,5.603-6.064,9.821c1.852-1.508,3.615-3.408,5.516-5.093
	c0.974,0.084,3.066,0.458,4.068,0.521c0.405-3.326,1.129-6.568,2.006-9.789c-1.523,0.883-3.057,1.735-4.764,2.566
	c-2.68-0.697-2.487-4.625-3.528-6.713c-4.696,0.768-8.119,4.78-12.776,6.09c-0.839-0.75-2.671-2.328-3.5-3.078
	c-1.697,0.832-3.316,2.037-5.004,2.858c-3.982-1.744-7.367-4.635-10.828-7.148c-1.293,0.57-2.672,1.465-3.857,2.244
	c-0.811,8.117-5.217,15.111-7.299,22.895c-3.548-2.182-7.242-4.437-11.59-4.458c-3.924-2.66-8.427-1.288-12.911-1.55
	c-7.454-1.215-11.031-9.196-14.493-15.524c-2.449-0.998-5.737-0.584-6.952-3.44c-3.163-5.354-6.133-10.83-10.173-15.309
	l-0.607,2.743c4.812,1.787,6.2,7.576,6.239,12.659c-4.204-0.74-8.196-1.59-12.487-1.986c2.623,1.04,5.246,2.089,7.868,3.129
	c-1.582,1.039-3.163,2.088-4.889,3.065c-6.808,4.925-11.821,12.316-19.661,15.881c1.408,0.364,4.146,0.913,5.429,1.246
	c-3.114,7.858-1.456,16.245-0.771,24.381c0.646,6.144,5.544,10.497,6.383,16.505c5.939,3.521,5.978,10.767,3.461,16.814
	c1.572-1.027,2.951-2.67,4.686-2.951c2.652,0.146,3.548,2.911,4.937,4.906c-0.521-6.632,0.569-13.064,2.16-19.331
	c-1.552,3.928-2.613,7.826-4.107,11.599c-0.521,0.029-1.668-0.073-2.179-0.031c-4.956-4.905-6.422-12.513-10.905-18.021
	c-4.686-6.102-4.474-14.56-4.802-22.062c0.935-7.89,1.841-17.254,8.745-21.784c4.937-5.602,14.975-12.201,20.77-4.366
	c0.916,0.406,2.902,1.302,3.818,1.706c0.492,1.589,1.09,3.356,1.533,5.103c4.021,1.6,8.138,3.397,10.597,7.463
	c1.678,2.961-0.356,6.058-1.282,8.708c-8.553,9-17.462,18.81-20.625,31.375c2.594-4.771,4.715-9.819,7.733-14.268
	c3.394-5.457,8.321-9.427,11.715-14.863c0.955,0.25,2.902,0.572,3.837,0.811c1.639-0.488,3.471-2.006,4.715-0.05
	c0.626,4.686,0.173,10.536,5.091,12.531c2.237,7.275,11.947,2.931,13.933,10.498c-2.035,4.542-4.011,8.926-6.026,13.458
	c-0.723,4.697-0.964,9.509-2.16,14.083c-1.899,9.997-7.212,18.769-9.748,28.589c-0.646,2.9-2.642,5.103-4.368,7.545
	c-0.039,16.639-10.414,30.037-15.649,45.147c-0.83-0.769-2.353-2.244-3.23-2.839c-2.777-7.781-3.76-16.18-7.135-23.55
	c-4.397-9.654-4.561-20.919-9.179-30.252c-2.729-5.79-4.166-12.129-6.2-18.073c-3.442-6.329-7.492-12.272-10.153-19.103
	c-4.667-0.861-9.545-1.59-13.73-3.938c-4.339-3.106-7.733-8.146-13.432-8.189c1.919,1.228,3.857,2.286,5.766,3.482
	c-0.415,2.607-0.945,5.008-1.485,7.399c-1.34,1.476-2.642,2.764-3.973,4.208c2.044-1.631,3.896-3.148,5.795-4.832
	c3.442-0.374,7.078-0.136,10.433,0.551c12.718,6.205,18.764,20.442,22.428,34.057c4.667,9.167,6.962,19.187,9.054,29.308
	c4.753,12.461,8.263,25.295,11.021,38.495c-12.959-7.347-28.57-5.811-42.079-0.977 M218.072,812.141
	c-0.029-2.162-0.078-4.188-0.29-6.225c7.386-0.78,14.763-0.676,21.907-1.891 M16.916,811.786c-0.492-2.307-2.652-3.221-4.474-4.084
	 M22.768,811.85 M293.802,703.933c4.628-1.144,8.157-4.927,12.573-6.683c-1.369,6.891-7.588,10.694-13.547,11.858
	c-6.566,0.832-11.523,5.684-17.23,8.73C278.182,710.001,286.338,705.075,293.802,703.933z M133.104,654.024
	c6.538,0.793,13.22,0.178,18.996,4.388c0.115,1.674,0.26,3.326,0.549,5.029l-8.195,0.594c-1.244,1.122-2.517,2.233-3.809,3.532
	c-1.234-1.226-2.623-2.505-4.031-3.762c-1.851-0.665-3.683-1.508-5.708-2.204C131.157,658.951,131.938,656.261,133.104,654.024z
	 M144.791,675.32c-0.27,1.196-0.646,3.649-0.762,4.885c-2.266-1.133-4.262-2.732-5.004-5.457c-2.362-0.612-4.619-1.037-7-1.652
	c0.193-1.589,0.636-4.354,0.829-5.933c4.397,2.058,8.187,5.383,12.525,7.763c-0.424-2.62-1.225-5.009-0.781-7.773
	c2.266,0.395,4.522,0.801,6.625,1.165c-0.049,4.686-0.252,9.363-1.119,13.997C148.271,680.028,146.43,677.742,144.791,675.32z
	 M149.168,699.982c1.061-2.432,1.061-6.225,4.542-6.037c-1.272,8.698-1.823,18.695-7.984,25.231
	C145.514,712.609,147.597,706.281,149.168,699.982z M366.812,794.007c-6.952-2.714-4.242-10.332-3.096-16.172
	c1.062-0.261,2.122-0.53,3.202-0.811C367.671,782.655,367.072,788.3,366.812,794.007z M356.1,765.343
	c-3.123-5.509-5.746-11.797-6.324-18.271c0.52,0.677,1.397,1.996,1.928,2.661c3.298,1.049,6.75,2.119,10.047,3.158
	c0.646,3.077,1.504,6.008,2.518,8.98c-1.273,0.394-3.809,1.185-5.015,1.392c-0.337,4.458,4.985,4.748,7.482,7.037
	c-0.154,0.684-0.327,2.255-0.337,2.991c-2.633,0.562-5.236,0.969-7.975,0.448C357.884,770.882,356.987,768.107,356.1,765.343z
	 M248.531,745.721c-0.849,6.102-8.08,9.115-13.19,8.698C239.197,750.71,243.479,747.311,248.531,745.721z M215.15,766.703
	c1.571-0.312,3.114-0.457,4.656-0.592c0.387-0.986,1.158-2.962,1.602-4.115c8.021-5.145,18.33-2.474,25.841-9.011
	c1.909,0.499,3.973,1.041,5.833,1.695c0.714-0.916,2.083-2.537,2.633-3.482c2.932,1.133,5.699,2.224,8.447,3.451
	c2.352,1.525,4.771,2.7,7,3.999c2.005,4.501,7.222,3.712,10.577,6.019c4.687,3.023,9.999,4.771,13.952,8.854
	c4.378,3.69,6.084,10.269,11.406,12.751c4.639,4.096,10.944,8.086,12.102,14.904c-9.295-1.893-17.636-8.2-23.816-15.787
	c-0.627-3.97-0.473-9.883-5.139-10.735c-0.145,3.574-2.729,6.175-5.332,8.001c-2.295-0.217-4.639-1.006-6.817-1.766
	c-3.288-4.812-8.745,0.084-13.19-1.069c-12.979-1.207-26.623,1.226-39.167-3.493c-1.032,0.114-2.912,0.333-3.79,0.468
	c-1.243-1.943-2.487-3.907-3.73-5.851c-0.945-0.25-2.855-0.738-3.762-1.175L215.15,766.703z M286.436,795.367
	c-0.984-3.129,3.654-3.564,4.897-1.611C291.95,796.262,287.562,797.114,286.436,795.367z M278.346,797.061
	c-0.193-2.93,4.551-4.603,6.268-2.505C284.95,797.519,280.023,799.295,278.346,797.061z M197.756,779.913
	c1.87,0.664,3.722,1.33,5.544,2.172c0.163,6.017-5.245,6.943-9.459,8.575c-1.515-1.487-3.086-2.796-4.59-4.251
	c-0.251-1.893-0.501-3.762-0.714-5.82C190.891,778.303,195.779,775.248,197.756,779.913z M70.748,813.481
	c0.935-0.499,2.787-1.268,3.731-1.745 M92.019,812.858c-6.73-1.404-13.432-2.94-20.326-3.659 M52.852,807.911
	c8.07-5.312,17.317-6.879,26.372-9.062c4.493,0.093,9.228,1.486,13.451-0.124c2.247,0.403,4.619,1.028,6.846,1.61
	c1.918,1.933,3.866,3.72,5.824,5.478 M133.644,811.383c-4.879-0.739-9.845-0.229-14.646-0.573c0.154-0.665,0.781-1.964,0.926-2.64
	c9.314-4.831,19.593-5.769,29.63-7.128C146.112,806.644,140.336,812.93,133.644,811.383z M178.432,809.252
	c-6.324,1.257-13.064-0.842-19.217,1.88c-3.875,1.528-8.061,2.268-12.371,2.027c2.912-6.288,9.103-9.197,14.02-13.168
	c5.12-3.376,9.198-8.106,14.396-11.087c3.125,0.269,3.992,3.928,5.67,6.172C184.334,799.4,182.279,806.279,178.432,809.252z
	 M188.711,809.023c0.54-2.368,1.234-4.729,1.967-7.244c-7.752,0.884-8.34-9.229-11.32-14.704c-2.111-3.274,1.649-8.087,4.734-6.923
	c1.004,6.06,3.732,11.109,8.756,14.216c1.08,2.641,3.114,4.065,5.419,5.032c0.097,2.555,0.028,5.071,0.145,7.627
	C195.277,808.223,192.086,809.752,188.711,809.023z M196.223,812.972c3.828-2.077,7.617-3.98,11.628-5.476 M206.192,797.663
	l0.598-1.848c-2.71-1.426-3.452-4.126-2.093-7.225c1.553,1.309,2.912,2.755,2.546,5.196c1.899,0.489,2.661,2.309,3.085,4.23
	C209.336,797.945,207.186,797.747,206.192,797.663z M209.51,780.609l-1.004-0.789l0.695-3.078l1.427-0.361
	c0.317,0.81,0.878,2.035,1.205,2.856C211.245,779.612,210.098,780.235,209.51,780.609z M236.305,801.156
	c-3.047,0.092-6.055,0.042-9.111-0.562c-1.234-1.943-2.439-4.063-3.684-6.027c0.637,0.166,1.707,0.624,2.305,0.956l0.568-2.546
	c0.801,1.644,1.572,3.483,2.344,5.301c2.314-2.1,4.908-3.97,7.694-2.161C236.401,797.737,236.344,799.535,236.305,801.156z
	 M244.424,790.42c-2.469-0.29-5.082-0.603-7.531-0.883c-0.211-1.309-0.636-3.949-0.674-5.239c-4.156-3.957-7.589,1.652-11.629,1.685
	c-1.109,0.438-3.278,1.153-4.378,1.581c-0.116,1.225-0.337,3.72-0.271,4.997c-1.947,0.396-3.75,1.009-5.621,1.787
	c-0.684-1.434-1.205-2.836-1.89-4.29c3.413,1.982,6.364-0.696,8.36-3.598c-0.318-0.821-0.965-2.441-1.293-3.242
	c6.837-2.753,14.348-2.608,21.213-0.28c10.723-1.383,21.483-0.749,32.109,0.561c0.202,2.059,1.609,4.044,0.839,6.008
	c-1.379,0.914-2.894,1.61-4.426,2.474c-4.754-1.964-9.44-3.535-14.666-4.18c-3.163,1.363-6.673,2.08-10.202,2.06
	c1.014,2.983,2.961,4.032,5.911,2.795c2.546,2.12,5.931,2.818,8.987,4.146c-1.775,1.186-3.434,2.559-5.043,3.764
	C249.553,799.701,242.119,796.874,244.424,790.42z M272.83,796.178c-2.643,5.819-9.209,5.923-14.396,6.567
	c1.205-3.118,2.247-6.297,3.135-9.498L272.83,796.178z M248.348,809.521c0.762,0.385,2.469,1.009,3.23,1.384
	c1.129-2.06,1.013-6.788,4.232-6.122c4.271,0.364,8.129,2.65,11.668,4.833c0.617-2.006,1.109-4.221,1.726-6.246
	c2.479-1.352,4.966-2.682,7.579-3.825c1.861-0.053,3.559-0.155,5.255-0.261c2.931,0.417,5.892-0.092,8.572-1.567
	c3.991-1.311,8.523-2.86,12.429-0.021c2.594,1.932,7.338,2.441,7.174,6.922c-3.915-0.468-8.09-3.535-11.764-0.697
	c1.543,2.257,3.867,4.261,2.372,6.995c2.141-3.535,5.901-4.678,9.69-3.855c0.067-1.799,0.125-3.586,0.193-5.384
	c1.716,1.352,1.995,3.054,0.674,5.248c1.109,0.28,3.145,0.987,4.233,1.278c1.649,2.431,4.503,2.431,6.885,3.046 M261.924,812.692
	 M324.975,805.396c3.191-2.254,6.383-4.498,9.971-6.268c4.021-2.222,8.967-2.565,12.814-5.549c2.4-1.724,4.956-4.862,8.021-2.807
	c2.729,5.77,2.941,12.348,4.253,18.479 M368.423,813.057c-2.526-2.994-1.562-6.558-0.8-9.969c1.146,0.116,3.259,0.488,4.406,0.584
	c6.422-2.474,13.721,3.22,17.279,9.031"/>
</svg>
