<?xml version="1.0" encoding="utf-8"?>
<!-- Generator: Adobe Illustrator 16.0.0, SVG Export Plug-In . SVG Version: 6.00 Build 0)  -->
<!DOCTYPE svg PUBLIC "-//W3C//DTD SVG 1.0//EN" "http://www.w3.org/TR/2001/REC-SVG-20010904/DTD/svg10.dtd">
<svg version="1.0" id="Layer_1" xmlns="http://www.w3.org/2000/svg" xmlns:xlink="http://www.w3.org/1999/xlink" x="0px" y="0px"
	 width="53px" height="50px" viewBox="0 0 53 50" style="enable-background:new 0 0 53 50;" xml:space="preserve">
<path style="fill:#D0D3D1;" d="M42.162,3.272c-4.271,5.317-7.524,10.679-9.754,16.089c-2.23,5.411-3.346,10.443-3.346,15.093
	c0,4.367,1.115,7.951,3.346,10.75c2.229,2.801,5.387,4.199,9.469,4.199c3.133,0,5.671-1.02,7.617-3.061
	c1.944-2.041,2.92-4.578,2.92-7.617c0-3.133-0.95-5.482-2.849-7.048c-1.899-1.566-4.225-2.349-6.977-2.349
	c-1.14,0-2.136,0.142-2.99,0.426c-0.095-3.701,0.759-7.759,2.563-12.173c1.802-4.413,3.652-7.853,5.553-10.322L42.162,3.272z
	 M13.686,3.272C9.415,8.589,6.162,13.952,3.933,19.361c-2.231,5.411-3.346,10.443-3.346,15.093c0,4.367,1.115,7.951,3.346,10.75
	c2.229,2.801,5.386,4.199,9.468,4.199c3.133,0,5.671-1.02,7.618-3.061c1.944-2.041,2.918-4.578,2.918-7.617
	c0-3.133-0.95-5.482-2.847-7.048c-1.9-1.566-4.225-2.349-6.977-2.349c-1.139,0-2.136,0.142-2.99,0.426
	c-0.096-3.701,0.759-7.759,2.563-12.173c1.802-4.413,3.653-7.853,5.553-10.322L13.686,3.272z"/>
</svg>
