<?xml version="1.0" encoding="utf-8"?>
<!-- Generator: Adobe Illustrator 16.0.0, SVG Export Plug-In . SVG Version: 6.00 Build 0)  -->
<!DOCTYPE svg PUBLIC "-//W3C//DTD SVG 1.1//EN" "http://www.w3.org/Graphics/SVG/1.1/DTD/svg11.dtd">
<svg version="1.1" id="Layer_1" xmlns="http://www.w3.org/2000/svg" xmlns:xlink="http://www.w3.org/1999/xlink" x="0px" y="0px"
	 width="325px" height="675px" viewBox="0 0 325 675" enable-background="new 0 0 325 675" xml:space="preserve">
<g>
	<g>
		<polygon fill="#010101" points="258.625,598.351 98.977,47.783 100.018,44.65 101.063,46.737 99.493,40.997 98.446,38.909 
			101.056,36.298 100.529,32.644 103.663,33.686 105.229,34.206 104.705,30.553 107.837,31.594 108.883,33.681 106.267,25.854 
			106.787,24.287 112.006,24.283 112.527,22.717 109.392,16.456 110.432,13.322 111.473,10.189 115.647,8.099 118.255,5.486 
			302,661.478 		"/>
	</g>
	<g>
		<polygon fill="#454444" points="319.219,651.546 140.192,23.216 134.974,23.22 131.837,16.958 130.791,14.872 130.267,11.219 
			131.307,8.086 130.782,4.432 128.171,1.825 126.605,1.304 125.564,4.437 126.607,6.524 125.042,6.003 123.475,5.482 
			121.388,6.528 120.866,8.094 119.301,7.573 118.255,5.486 302,661.478 		"/>
	</g>
</g>
<path fill="#FFFFFF" d="M186.268,515.891"/>
<g>
	<polygon fill="#434343" points="282.304,166.532 33.66,242.896 2.331,116.269 252.193,25.466 	"/>
	<g>
		<polygon fill="#FFFFFF" points="59.269,116.31 40.056,123.586 49.917,161.446 69.13,154.168 		"/>
		<g>
			<path fill="#010101" d="M50.265,123.064c4.024-1.523,6.819,0.493,8.097,5.393l0.251,0.961l-3.911,1.481l-0.331-1.268
				c-0.57-2.188-1.54-2.734-2.857-2.235c-1.313,0.498-1.851,1.615-1.281,3.802c1.641,6.299,10.033,4.417,12.311,13.166
				c1.276,4.901-0.097,8.498-4.161,10.036c-4.061,1.539-6.897-0.463-8.173-5.365l-0.49-1.88l3.911-1.482l0.569,2.188
				c0.569,2.188,1.605,2.661,2.921,2.162c1.314-0.497,1.938-1.599,1.368-3.789c-1.641-6.297-10.036-4.417-12.314-13.164
				C44.9,128.173,46.242,124.589,50.265,123.064z"/>
		</g>
	</g>
	<g>
		<polygon fill="#FFFFFF" points="86.601,110.848 67.808,117.965 77.67,155.826 96.462,148.708 		"/>
		<g>
			<path fill="#010101" d="M73.714,127.533c-1.276-4.9,0.215-8.54,4.275-10.078c4.06-1.538,7.009,0.42,8.285,5.32l4.148,15.921
				c1.276,4.901-0.214,8.541-4.275,10.078c-4.061,1.539-7.01-0.42-8.287-5.321L73.714,127.533z M82.078,142.193
				c0.57,2.188,1.613,2.706,2.929,2.207c1.317-0.499,1.928-1.642,1.358-3.83l-4.307-16.534c-0.568-2.187-1.612-2.706-2.93-2.208
				c-1.315,0.5-1.927,1.644-1.356,3.831L82.078,142.193z"/>
		</g>
	</g>
	<g>
		<polygon fill="#FFFFFF" points="121.667,149.539 102.874,156.657 112.735,194.519 131.528,187.399 		"/>
		<g>
			<path fill="#010101" d="M108.78,166.225c-1.276-4.899,0.214-8.539,4.275-10.078c4.061-1.538,7.01,0.421,8.287,5.32l4.146,15.922
				c1.277,4.9-0.214,8.542-4.275,10.078c-4.059,1.538-7.008-0.42-8.286-5.321L108.78,166.225z M117.144,180.886
				c0.571,2.188,1.613,2.705,2.931,2.206c1.316-0.498,1.927-1.641,1.357-3.831l-4.307-16.534c-0.569-2.187-1.613-2.705-2.93-2.206
				c-1.317,0.498-1.928,1.643-1.357,3.831L117.144,180.886z"/>
		</g>
	</g>
	<g>
		<polygon fill="#FFFFFF" points="109.08,96.413 90.287,103.532 100.147,141.39 118.94,134.273 		"/>
		<g>
			<path fill="#010101" d="M108.69,108.03l0.286,1.094c0.82,3.148,0.514,5.476-1.064,7.179c2.479,0.166,3.95,2.156,4.792,5.395
				l0.649,2.493c1.231,4.724-0.252,8.072-4.39,9.64l-6.507,2.464l-7.976-30.62l6.244-2.365
				C105.013,101.685,107.459,103.305,108.69,108.03z M99.757,108.48l2.108,8.094l1.617-0.613c1.543-0.584,2.277-1.729,1.64-4.178
				l-0.444-1.707c-0.57-2.187-1.46-2.907-2.927-2.351L99.757,108.48z M103.005,120.949l2.45,9.404l2.371-0.898
				c1.39-0.526,1.949-1.556,1.357-3.831l-0.695-2.668c-0.741-2.843-1.758-3.418-3.638-2.707L103.005,120.949z"/>
		</g>
	</g>
	<g>
		<polygon fill="#FFFFFF" points="95.508,163.408 76.715,170.526 86.577,208.386 105.369,201.269 		"/>
		<g>
			<path fill="#010101" d="M95.544,175.563l1.037,3.981c1.276,4.898-0.062,8.336-4.196,9.902l-1.956,0.741l2.996,11.505
				l-4.136,1.566l-7.976-30.62l6.093-2.309C91.54,168.765,94.269,170.664,95.544,175.563z M86.588,175.448l2.701,10.366l1.956-0.741
				c1.314-0.498,1.847-1.47,1.279-3.656l-1.197-4.593c-0.57-2.188-1.469-2.615-2.782-2.117L86.588,175.448z"/>
		</g>
	</g>
	<g>
		<polygon fill="#FFFFFF" points="169.156,133.767 150.363,140.884 160.224,178.745 179.016,171.627 		"/>
		<g>
			<path fill="#010101" d="M160.167,150.301l5.776,22.179l-3.723,1.409l-7.975-30.621l5.189-1.965l9.024,16.719l-4.773-18.329
				l3.684-1.395l7.976,30.62l-4.247,1.608L160.167,150.301z"/>
		</g>
	</g>
	<g>
		<polygon fill="#FFFFFF" points="134.6,84.963 115.807,92.08 125.668,129.941 144.461,122.822 		"/>
		<g>
			<path fill="#010101" d="M136.585,121.583c-0.431-0.701-0.707-1.125-1.357-3.619l-1.253-4.812c-0.74-2.844-1.841-3.58-3.721-2.868
				l-1.43,0.542l3.247,12.466l-4.137,1.567l-7.976-30.621l6.245-2.365c4.286-1.624,6.734-0.003,7.965,4.721l0.626,2.405
				c0.819,3.149,0.49,5.534-1.091,7.239c2.332,0.223,3.613,2.283,4.443,5.476l1.231,4.724c0.387,1.487,0.709,2.567,1.417,3.548
				L136.585,121.583z M125.236,97.046l2.449,9.405l1.616-0.612c1.544-0.584,2.279-1.727,1.643-4.176l-0.787-3.018
				c-0.571-2.188-1.462-2.909-2.928-2.353L125.236,97.046z"/>
		</g>
	</g>
	<g>
		<polygon fill="#FFFFFF" points="153.894,79.568 143.27,83.593 153.131,121.452 163.755,117.428 		"/>
		<g>
			<path fill="#010101" d="M147.472,85.729l4.137-1.566l7.974,30.62l-4.135,1.566L147.472,85.729z"/>
		</g>
	</g>
	<g>
		<polygon fill="#FFFFFF" points="142.756,146.785 132.132,150.809 141.993,188.668 152.618,184.645 		"/>
		<g>
			<path fill="#010101" d="M136.333,152.947l4.138-1.567l7.975,30.62l-4.137,1.568L136.333,152.947z"/>
		</g>
	</g>
	<g>
		<polygon fill="#FFFFFF" points="177.836,71.787 161.369,78.024 171.231,115.884 187.696,109.648 		"/>
		<g>
			<path fill="#010101" d="M172.259,91.806l5.68-2.152l1.141,4.374l-5.68,2.152l2.335,8.968l7.147-2.707l1.141,4.375l-11.285,4.273
				l-7.976-30.62l11.285-4.274l1.14,4.376l-7.149,2.707L172.259,91.806z"/>
		</g>
	</g>
	<g>
		<polygon fill="#FFFFFF" points="203.461,64.084 186.023,70.688 195.884,108.548 213.321,101.943 		"/>
		<g>
			<path fill="#010101" d="M189.476,73.762l12.788-4.844l1.14,4.376l-4.326,1.639l6.835,26.245l-4.137,1.566L194.94,76.5
				l-4.325,1.638L189.476,73.762z"/>
		</g>
	</g>
	<g>
		<polygon fill="#FFFFFF" points="195.153,126.019 177.715,132.623 187.576,170.482 205.016,163.877 		"/>
		<g>
			<path fill="#010101" d="M181.169,135.697l12.787-4.844l1.14,4.376l-4.327,1.639l6.837,26.244l-4.137,1.568l-6.837-26.245
				l-4.324,1.639L181.169,135.697z"/>
		</g>
	</g>
	<g>
		<polygon fill="#FFFFFF" points="228.125,53.085 209.332,60.204 219.194,98.063 237.986,90.945 		"/>
		<g>
			<path fill="#010101" d="M222.939,81.27l-10.56-18.491l4.326-1.64l6.792,12.76l-0.474-15.152l3.95-1.496l0.103,22.453
				l2.644,10.149l-4.139,1.566L222.939,81.27z"/>
		</g>
	</g>
</g>
</svg>
